<svg xmlns="http://www.w3.org/2000/svg" xmlns:xlink="http://www.w3.org/1999/xlink" width="1080" zoomAndPan="magnify" viewBox="0 0 810 809.999993" height="1080" preserveAspectRatio="xMidYMid meet" version="1.0"><defs><clipPath id="6a28d752bc"><path d="M 7.363281 199 L 617 199 L 617 809 L 7.363281 809 Z M 7.363281 199 " clip-rule="nonzero"/></clipPath><clipPath id="46ffc4c8d0"><path d="M 430 1 L 802.363281 1 L 802.363281 374 L 430 374 Z M 430 1 " clip-rule="nonzero"/></clipPath></defs><g clip-path="url(#6a28d752bc)"><path fill="#ffffff" d="M 319.441406 362.078125 C 319.675781 364.203125 319.949219 366.320312 320.273438 368.433594 C 320.59375 370.546875 320.960938 372.652344 321.371094 374.75 C 321.78125 376.847656 322.234375 378.9375 322.734375 381.015625 C 323.234375 383.09375 323.777344 385.160156 324.363281 387.214844 C 324.949219 389.269531 325.578125 391.3125 326.25 393.339844 C 326.921875 395.371094 327.636719 397.382812 328.394531 399.382812 C 329.152344 401.378906 329.953125 403.363281 330.792969 405.324219 C 331.636719 407.289062 332.515625 409.238281 333.441406 411.164062 C 334.363281 413.089844 335.328125 414.996094 336.332031 416.882812 C 337.335938 418.769531 338.382812 420.636719 339.464844 422.476562 C 340.546875 424.320312 341.667969 426.136719 342.828125 427.933594 C 343.988281 429.726562 345.1875 431.496094 346.421875 433.242188 C 347.65625 434.984375 348.929688 436.703125 350.234375 438.394531 C 351.542969 440.085938 352.886719 441.746094 354.261719 443.378906 C 355.640625 445.011719 357.050781 446.617188 358.5 448.191406 C 359.945312 449.765625 361.421875 451.308594 362.933594 452.820312 C 364.445312 454.328125 365.984375 455.808594 367.558594 457.253906 C 369.132812 458.699219 370.734375 460.113281 372.367188 461.492188 C 374 462.871094 375.664062 464.210938 377.351562 465.519531 C 379.042969 466.828125 380.757812 468.101562 382.503906 469.335938 C 384.246094 470.570312 386.015625 471.769531 387.808594 472.929688 C 389.605469 474.089844 391.421875 475.210938 393.261719 476.292969 C 395.105469 477.378906 396.96875 478.421875 398.855469 479.425781 C 400.742188 480.433594 402.648438 481.394531 404.574219 482.320312 C 406.5 483.246094 408.445312 484.128906 410.410156 484.96875 C 412.375 485.8125 414.355469 486.609375 416.351562 487.367188 C 418.347656 488.125 420.363281 488.839844 422.390625 489.515625 C 424.417969 490.1875 426.460938 490.816406 428.515625 491.402344 C 430.570312 491.988281 432.636719 492.53125 434.710938 493.03125 C 436.789062 493.53125 438.878906 493.984375 440.972656 494.394531 C 443.070312 494.804688 445.175781 495.171875 447.289062 495.492188 C 449.398438 495.816406 451.519531 496.09375 453.640625 496.324219 C 507.84375 501.730469 562.179688 504.207031 616.648438 503.761719 C 562.175781 503.3125 507.835938 505.789062 453.628906 511.195312 C 451.503906 511.425781 449.386719 511.703125 447.273438 512.023438 C 445.160156 512.347656 443.058594 512.710938 440.960938 513.125 C 438.863281 513.535156 436.777344 513.988281 434.699219 514.488281 C 432.621094 514.988281 430.558594 515.53125 428.503906 516.117188 C 426.449219 516.703125 424.40625 517.332031 422.378906 518.007812 C 420.351562 518.679688 418.339844 519.394531 416.339844 520.152344 C 414.34375 520.910156 412.363281 521.710938 410.398438 522.550781 C 408.4375 523.394531 406.492188 524.277344 404.5625 525.203125 C 402.636719 526.125 400.730469 527.089844 398.847656 528.09375 C 396.960938 529.101562 395.097656 530.144531 393.253906 531.226562 C 391.414062 532.3125 389.597656 533.433594 387.800781 534.59375 C 386.007812 535.753906 384.238281 536.953125 382.496094 538.1875 C 380.753906 539.421875 379.035156 540.695312 377.347656 542.003906 C 375.65625 543.3125 373.996094 544.652344 372.363281 546.03125 C 370.730469 547.410156 369.128906 548.820312 367.554688 550.269531 C 365.980469 551.714844 364.4375 553.191406 362.929688 554.703125 C 361.417969 556.214844 359.941406 557.757812 358.496094 559.332031 C 357.050781 560.90625 355.636719 562.507812 354.261719 564.144531 C 352.882812 565.777344 351.539062 567.4375 350.234375 569.128906 C 348.925781 570.820312 347.65625 572.535156 346.417969 574.28125 C 345.183594 576.023438 343.988281 577.792969 342.828125 579.589844 C 341.667969 581.382812 340.546875 583.203125 339.464844 585.042969 C 338.378906 586.886719 337.335938 588.75 336.332031 590.636719 C 335.328125 592.523438 334.363281 594.429688 333.441406 596.355469 C 332.515625 598.285156 331.632812 600.230469 330.792969 602.195312 C 329.953125 604.160156 329.152344 606.140625 328.394531 608.136719 C 327.636719 610.136719 326.921875 612.148438 326.25 614.179688 C 325.578125 616.207031 324.949219 618.25 324.363281 620.304688 C 323.777344 622.359375 323.234375 624.425781 322.734375 626.503906 C 322.234375 628.582031 321.78125 630.671875 321.371094 632.765625 C 320.960938 634.863281 320.59375 636.96875 320.273438 639.082031 C 319.949219 641.195312 319.675781 643.3125 319.441406 645.4375 C 314.042969 699.664062 311.566406 754.019531 312.011719 808.507812 C 312.460938 754.019531 309.980469 699.660156 304.578125 645.4375 C 304.347656 643.3125 304.070312 641.195312 303.75 639.082031 C 303.425781 636.96875 303.0625 634.863281 302.648438 632.765625 C 302.238281 630.667969 301.785156 628.582031 301.285156 626.503906 C 300.789062 624.425781 300.246094 622.359375 299.660156 620.300781 C 299.074219 618.246094 298.445312 616.203125 297.769531 614.175781 C 297.097656 612.148438 296.382812 610.132812 295.625 608.136719 C 294.867188 606.136719 294.070312 604.15625 293.226562 602.191406 C 292.386719 600.226562 291.503906 598.28125 290.582031 596.351562 C 289.65625 594.425781 288.691406 592.519531 287.6875 590.632812 C 286.683594 588.746094 285.640625 586.882812 284.558594 585.039062 C 283.472656 583.195312 282.351562 581.378906 281.191406 579.582031 C 280.03125 577.789062 278.835938 576.019531 277.601562 574.273438 C 276.363281 572.53125 275.09375 570.8125 273.785156 569.121094 C 272.480469 567.433594 271.136719 565.769531 269.757812 564.136719 C 268.378906 562.503906 266.96875 560.898438 265.523438 559.324219 C 264.078125 557.75 262.597656 556.207031 261.089844 554.699219 C 259.578125 553.1875 258.035156 551.707031 256.460938 550.261719 C 254.890625 548.816406 253.285156 547.402344 251.652344 546.023438 C 250.019531 544.648438 248.359375 543.304688 246.667969 541.996094 C 244.980469 540.6875 243.261719 539.414062 241.519531 538.179688 C 239.773438 536.945312 238.003906 535.746094 236.210938 534.585938 C 234.417969 533.425781 232.597656 532.304688 230.757812 531.222656 C 228.914062 530.136719 227.050781 529.09375 225.167969 528.089844 C 223.28125 527.085938 221.375 526.121094 219.449219 525.195312 C 217.519531 524.273438 215.574219 523.390625 213.613281 522.546875 C 211.648438 521.707031 209.667969 520.90625 207.667969 520.148438 C 205.671875 519.390625 203.65625 518.675781 201.628906 518.003906 C 199.601562 517.328125 197.5625 516.699219 195.507812 516.113281 C 193.453125 515.527344 191.386719 514.984375 189.308594 514.484375 C 187.230469 513.988281 185.144531 513.53125 183.046875 513.121094 C 180.949219 512.710938 178.84375 512.34375 176.730469 512.023438 C 174.621094 511.703125 172.5 511.425781 170.378906 511.195312 C 116.171875 505.789062 61.835938 503.3125 7.363281 503.761719 C 61.835938 504.207031 116.171875 501.730469 170.378906 496.324219 C 172.503906 496.09375 174.621094 495.816406 176.734375 495.496094 C 178.84375 495.171875 180.949219 494.808594 183.046875 494.394531 C 185.144531 493.984375 187.230469 493.53125 189.308594 493.03125 C 191.386719 492.535156 193.453125 491.992188 195.507812 491.40625 C 197.5625 490.816406 199.601562 490.1875 201.628906 489.515625 C 203.660156 488.84375 205.671875 488.128906 207.667969 487.371094 C 209.667969 486.613281 211.648438 485.8125 213.613281 484.972656 C 215.578125 484.128906 217.523438 483.246094 219.449219 482.324219 C 221.375 481.398438 223.28125 480.433594 225.167969 479.429688 C 227.054688 478.425781 228.917969 477.382812 230.757812 476.296875 C 232.601562 475.214844 234.417969 474.09375 236.210938 472.933594 C 238.007812 471.769531 239.777344 470.574219 241.519531 469.339844 C 243.261719 468.101562 244.980469 466.832031 246.667969 465.523438 C 248.359375 464.214844 250.019531 462.871094 251.652344 461.496094 C 253.289062 460.117188 254.890625 458.703125 256.464844 457.257812 C 258.039062 455.8125 259.578125 454.332031 261.089844 452.820312 C 262.601562 451.308594 264.078125 449.769531 265.523438 448.195312 C 266.96875 446.621094 268.382812 445.015625 269.761719 443.382812 C 271.136719 441.75 272.480469 440.085938 273.789062 438.394531 C 275.09375 436.707031 276.367188 434.988281 277.601562 433.246094 C 278.835938 431.5 280.035156 429.730469 281.195312 427.9375 C 282.355469 426.140625 283.476562 424.320312 284.558594 422.480469 C 285.640625 420.636719 286.683594 418.773438 287.691406 416.886719 C 288.695312 415 289.65625 413.09375 290.582031 411.164062 C 291.503906 409.238281 292.386719 407.292969 293.230469 405.328125 C 294.070312 403.363281 294.871094 401.382812 295.628906 399.382812 C 296.386719 397.382812 297.101562 395.371094 297.773438 393.34375 C 298.445312 391.3125 299.074219 389.269531 299.660156 387.214844 C 300.246094 385.160156 300.789062 383.09375 301.289062 381.015625 C 301.785156 378.9375 302.242188 376.847656 302.652344 374.75 C 303.0625 372.652344 303.425781 370.546875 303.75 368.433594 C 304.070312 366.320312 304.347656 364.203125 304.578125 362.078125 C 309.980469 307.855469 312.460938 253.5 312.011719 199.007812 C 311.566406 253.5 314.042969 307.855469 319.441406 362.078125 Z M 319.441406 362.078125 " fill-opacity="1" fill-rule="nonzero"/></g><g clip-path="url(#46ffc4c8d0)"><path fill="#ffffff" d="M 621.199219 100.863281 C 621.484375 103.457031 621.875 106.035156 622.375 108.597656 C 622.878906 111.160156 623.488281 113.699219 624.203125 116.207031 C 624.917969 118.71875 625.738281 121.195312 626.664062 123.636719 C 627.589844 126.078125 628.617188 128.476562 629.746094 130.832031 C 630.875 133.183594 632.101562 135.488281 633.421875 137.738281 C 634.746094 139.988281 636.164062 142.179688 637.671875 144.3125 C 639.179688 146.441406 640.777344 148.503906 642.457031 150.5 C 644.140625 152.496094 645.90625 154.417969 647.75 156.261719 C 649.597656 158.109375 651.519531 159.875 653.511719 161.558594 C 655.507812 163.242188 657.570312 164.839844 659.699219 166.347656 C 661.832031 167.855469 664.019531 169.273438 666.269531 170.597656 C 668.519531 171.921875 670.820312 173.148438 673.175781 174.277344 C 675.53125 175.402344 677.925781 176.429688 680.367188 177.359375 C 682.808594 178.285156 685.28125 179.105469 687.792969 179.820312 C 690.304688 180.535156 692.839844 181.144531 695.402344 181.648438 C 697.960938 182.148438 700.539062 182.542969 703.136719 182.824219 C 736.230469 186.125 769.410156 187.636719 802.671875 187.363281 C 769.410156 187.089844 736.230469 188.605469 703.136719 191.898438 C 700.539062 192.183594 697.960938 192.574219 695.398438 193.078125 C 692.839844 193.578125 690.304688 194.1875 687.792969 194.90625 C 685.28125 195.621094 682.808594 196.441406 680.367188 197.367188 C 677.925781 198.292969 675.527344 199.320312 673.175781 200.449219 C 670.820312 201.582031 668.519531 202.804688 666.269531 204.128906 C 664.019531 205.453125 661.828125 206.871094 659.699219 208.378906 C 657.570312 209.890625 655.507812 211.484375 653.511719 213.167969 C 651.515625 214.855469 649.597656 216.617188 647.75 218.464844 C 645.90625 220.3125 644.140625 222.234375 642.457031 224.230469 C 640.773438 226.222656 639.179688 228.289062 637.671875 230.417969 C 636.160156 232.550781 634.746094 234.742188 633.421875 236.992188 C 632.101562 239.242188 630.875 241.542969 629.746094 243.898438 C 628.617188 246.253906 627.589844 248.652344 626.664062 251.09375 C 625.738281 253.535156 624.917969 256.011719 624.203125 258.523438 C 623.484375 261.035156 622.878906 263.570312 622.375 266.132812 C 621.875 268.695312 621.484375 271.273438 621.199219 273.871094 C 617.898438 306.976562 616.378906 340.164062 616.648438 373.433594 C 616.921875 340.164062 615.40625 306.976562 612.105469 273.871094 C 611.824219 271.273438 611.429688 268.695312 610.929688 266.132812 C 610.429688 263.570312 609.820312 261.035156 609.105469 258.523438 C 608.386719 256.011719 607.566406 253.535156 606.640625 251.097656 C 605.71875 248.65625 604.691406 246.257812 603.5625 243.902344 C 602.433594 241.546875 601.207031 239.246094 599.886719 236.996094 C 598.5625 234.742188 597.148438 232.554688 595.640625 230.421875 C 594.128906 228.292969 592.535156 226.226562 590.851562 224.234375 C 589.167969 222.238281 587.40625 220.316406 585.558594 218.46875 C 583.714844 216.621094 581.792969 214.859375 579.800781 213.175781 C 577.804688 211.488281 575.742188 209.894531 573.613281 208.382812 C 571.484375 206.875 569.292969 205.457031 567.042969 204.132812 C 564.796875 202.808594 562.492188 201.582031 560.140625 200.453125 C 557.789062 199.324219 555.390625 198.296875 552.949219 197.371094 C 550.511719 196.445312 548.035156 195.625 545.523438 194.90625 C 543.015625 194.191406 540.480469 193.582031 537.917969 193.078125 C 535.359375 192.578125 532.78125 192.183594 530.183594 191.898438 C 497.085938 188.605469 463.910156 187.089844 430.648438 187.363281 C 463.910156 187.636719 497.085938 186.125 530.183594 182.824219 C 532.78125 182.542969 535.359375 182.148438 537.917969 181.648438 C 540.480469 181.144531 543.015625 180.535156 545.527344 179.820312 C 548.035156 179.105469 550.511719 178.285156 552.953125 177.359375 C 555.394531 176.433594 557.789062 175.40625 560.144531 174.277344 C 562.496094 173.148438 564.800781 171.921875 567.050781 170.597656 C 569.300781 169.273438 571.488281 167.855469 573.621094 166.347656 C 575.75 164.839844 577.8125 163.242188 579.808594 161.558594 C 581.800781 159.875 583.722656 158.109375 585.566406 156.261719 C 587.414062 154.417969 589.179688 152.496094 590.859375 150.5 C 592.542969 148.503906 594.140625 146.441406 595.648438 144.3125 C 597.15625 142.179688 598.574219 139.988281 599.898438 137.738281 C 601.21875 135.488281 602.445312 133.183594 603.574219 130.832031 C 604.703125 128.476562 605.730469 126.078125 606.65625 123.636719 C 607.582031 121.195312 608.402344 118.71875 609.117188 116.207031 C 609.832031 113.699219 610.441406 111.160156 610.945312 108.597656 C 611.445312 106.035156 611.835938 103.457031 612.121094 100.863281 C 615.417969 67.753906 616.925781 34.5625 616.648438 1.292969 C 616.378906 34.5625 617.898438 67.753906 621.199219 100.863281 Z M 621.199219 100.863281 " fill-opacity="1" fill-rule="nonzero"/></g></svg>