<svg width="359" height="123" viewBox="0 0 359 123" fill="none" xmlns="http://www.w3.org/2000/svg">
<path d="M61.2104 71.06L57.1704 85H55.1304L51.8904 73.78L48.5304 85L46.5104 85.02L42.6104 71.06H44.5504L47.5904 82.88L50.9504 71.06H52.9904L56.1904 82.84L59.2504 71.06H61.2104ZM73.2021 79.1C73.2021 79.4467 73.1821 79.8133 73.1421 80.2H64.3821C64.4488 81.28 64.8154 82.1267 65.4821 82.74C66.1621 83.34 66.9821 83.64 67.9421 83.64C68.7288 83.64 69.3821 83.46 69.9021 83.1C70.4354 82.7267 70.8088 82.2333 71.0221 81.62H72.9821C72.6888 82.6733 72.1021 83.5333 71.2221 84.2C70.3421 84.8533 69.2488 85.18 67.9421 85.18C66.9021 85.18 65.9688 84.9467 65.1421 84.48C64.3288 84.0133 63.6888 83.3533 63.2221 82.5C62.7554 81.6333 62.5221 80.6333 62.5221 79.5C62.5221 78.3667 62.7488 77.3733 63.2021 76.52C63.6554 75.6667 64.2888 75.0133 65.1021 74.56C65.9288 74.0933 66.8754 73.86 67.9421 73.86C68.9821 73.86 69.9021 74.0867 70.7021 74.54C71.5021 74.9933 72.1154 75.62 72.5421 76.42C72.9821 77.2067 73.2021 78.1 73.2021 79.1ZM71.3221 78.72C71.3221 78.0267 71.1688 77.4333 70.8621 76.94C70.5554 76.4333 70.1354 76.0533 69.6021 75.8C69.0821 75.5333 68.5021 75.4 67.8621 75.4C66.9421 75.4 66.1554 75.6933 65.5021 76.28C64.8621 76.8667 64.4954 77.68 64.4021 78.72H71.3221ZM77.4245 70.2V85H75.6045V70.2H77.4245ZM79.8463 79.5C79.8463 78.3667 80.073 77.38 80.5263 76.54C80.9797 75.6867 81.6063 75.0267 82.4063 74.56C83.2197 74.0933 84.1463 73.86 85.1863 73.86C86.533 73.86 87.6397 74.1867 88.5063 74.84C89.3863 75.4933 89.9663 76.4 90.2463 77.56H88.2863C88.0997 76.8933 87.733 76.3667 87.1863 75.98C86.653 75.5933 85.9863 75.4 85.1863 75.4C84.1463 75.4 83.3063 75.76 82.6663 76.48C82.0263 77.1867 81.7063 78.1933 81.7063 79.5C81.7063 80.82 82.0263 81.84 82.6663 82.56C83.3063 83.28 84.1463 83.64 85.1863 83.64C85.9863 83.64 86.653 83.4533 87.1863 83.08C87.7197 82.7067 88.0863 82.1733 88.2863 81.48H90.2463C89.953 82.6 89.3663 83.5 88.4863 84.18C87.6063 84.8467 86.5063 85.18 85.1863 85.18C84.1463 85.18 83.2197 84.9467 82.4063 84.48C81.6063 84.0133 80.9797 83.3533 80.5263 82.5C80.073 81.6467 79.8463 80.6467 79.8463 79.5ZM97.4548 85.18C96.4281 85.18 95.4948 84.9467 94.6548 84.48C93.8281 84.0133 93.1748 83.3533 92.6948 82.5C92.2281 81.6333 91.9948 80.6333 91.9948 79.5C91.9948 78.38 92.2348 77.3933 92.7148 76.54C93.2081 75.6733 93.8748 75.0133 94.7148 74.56C95.5548 74.0933 96.4948 73.86 97.5348 73.86C98.5748 73.86 99.5148 74.0933 100.355 74.56C101.195 75.0133 101.855 75.6667 102.335 76.52C102.828 77.3733 103.075 78.3667 103.075 79.5C103.075 80.6333 102.821 81.6333 102.315 82.5C101.821 83.3533 101.148 84.0133 100.295 84.48C99.4414 84.9467 98.4948 85.18 97.4548 85.18ZM97.4548 83.58C98.1081 83.58 98.7214 83.4267 99.2948 83.12C99.8681 82.8133 100.328 82.3533 100.675 81.74C101.035 81.1267 101.215 80.38 101.215 79.5C101.215 78.62 101.041 77.8733 100.695 77.26C100.348 76.6467 99.8948 76.1933 99.3348 75.9C98.7748 75.5933 98.1681 75.44 97.5148 75.44C96.8481 75.44 96.2348 75.5933 95.6748 75.9C95.1281 76.1933 94.6881 76.6467 94.3548 77.26C94.0214 77.8733 93.8548 78.62 93.8548 79.5C93.8548 80.3933 94.0148 81.1467 94.3348 81.76C94.6681 82.3733 95.1081 82.8333 95.6548 83.14C96.2014 83.4333 96.8014 83.58 97.4548 83.58ZM118.648 73.84C119.501 73.84 120.261 74.02 120.928 74.38C121.594 74.7267 122.121 75.2533 122.508 75.96C122.894 76.6667 123.088 77.5267 123.088 78.54V85H121.288V78.8C121.288 77.7067 121.014 76.8733 120.468 76.3C119.934 75.7133 119.208 75.42 118.288 75.42C117.341 75.42 116.588 75.7267 116.028 76.34C115.468 76.94 115.188 77.8133 115.188 78.96V85H113.388V78.8C113.388 77.7067 113.114 76.8733 112.568 76.3C112.034 75.7133 111.308 75.42 110.388 75.42C109.441 75.42 108.688 75.7267 108.128 76.34C107.568 76.94 107.288 77.8133 107.288 78.96V85H105.468V74.04H107.288V75.62C107.648 75.0467 108.128 74.6067 108.728 74.3C109.341 73.9933 110.014 73.84 110.748 73.84C111.668 73.84 112.481 74.0467 113.188 74.46C113.894 74.8733 114.421 75.48 114.768 76.28C115.074 75.5067 115.581 74.9067 116.288 74.48C116.994 74.0533 117.781 73.84 118.648 73.84ZM136.073 79.1C136.073 79.4467 136.053 79.8133 136.013 80.2H127.253C127.32 81.28 127.687 82.1267 128.353 82.74C129.033 83.34 129.853 83.64 130.813 83.64C131.6 83.64 132.253 83.46 132.773 83.1C133.307 82.7267 133.68 82.2333 133.893 81.62H135.853C135.56 82.6733 134.973 83.5333 134.093 84.2C133.213 84.8533 132.12 85.18 130.813 85.18C129.773 85.18 128.84 84.9467 128.013 84.48C127.2 84.0133 126.56 83.3533 126.093 82.5C125.627 81.6333 125.393 80.6333 125.393 79.5C125.393 78.3667 125.62 77.3733 126.073 76.52C126.527 75.6667 127.16 75.0133 127.973 74.56C128.8 74.0933 129.747 73.86 130.813 73.86C131.853 73.86 132.773 74.0867 133.573 74.54C134.373 74.9933 134.987 75.62 135.413 76.42C135.853 77.2067 136.073 78.1 136.073 79.1ZM134.193 78.72C134.193 78.0267 134.04 77.4333 133.733 76.94C133.427 76.4333 133.007 76.0533 132.473 75.8C131.953 75.5333 131.373 75.4 130.733 75.4C129.813 75.4 129.027 75.6933 128.373 76.28C127.733 76.8667 127.367 77.68 127.273 78.72H134.193ZM146.028 75.54V82C146.028 82.5333 146.141 82.9133 146.368 83.14C146.594 83.3533 146.988 83.46 147.548 83.46H148.888V85H147.248C146.234 85 145.474 84.7667 144.968 84.3C144.461 83.8333 144.208 83.0667 144.208 82V75.54H142.788V74.04H144.208V71.28H146.028V74.04H148.888V75.54H146.028ZM155.873 85.18C154.846 85.18 153.913 84.9467 153.073 84.48C152.246 84.0133 151.593 83.3533 151.113 82.5C150.646 81.6333 150.413 80.6333 150.413 79.5C150.413 78.38 150.653 77.3933 151.133 76.54C151.626 75.6733 152.293 75.0133 153.133 74.56C153.973 74.0933 154.913 73.86 155.953 73.86C156.993 73.86 157.933 74.0933 158.773 74.56C159.613 75.0133 160.273 75.6667 160.753 76.52C161.246 77.3733 161.493 78.3667 161.493 79.5C161.493 80.6333 161.239 81.6333 160.733 82.5C160.239 83.3533 159.566 84.0133 158.713 84.48C157.859 84.9467 156.913 85.18 155.873 85.18ZM155.873 83.58C156.526 83.58 157.139 83.4267 157.713 83.12C158.286 82.8133 158.746 82.3533 159.093 81.74C159.453 81.1267 159.633 80.38 159.633 79.5C159.633 78.62 159.459 77.8733 159.113 77.26C158.766 76.6467 158.313 76.1933 157.753 75.9C157.193 75.5933 156.586 75.44 155.933 75.44C155.266 75.44 154.653 75.5933 154.093 75.9C153.546 76.1933 153.106 76.6467 152.773 77.26C152.439 77.8733 152.273 78.62 152.273 79.5C152.273 80.3933 152.433 81.1467 152.753 81.76C153.086 82.3733 153.526 82.8333 154.073 83.14C154.619 83.4333 155.219 83.58 155.873 83.58ZM179.958 71.06V85H178.138V78.68H171.038V85H169.218V71.06H171.038V77.18H178.138V71.06H179.958ZM187.845 85.18C186.819 85.18 185.885 84.9467 185.045 84.48C184.219 84.0133 183.565 83.3533 183.085 82.5C182.619 81.6333 182.385 80.6333 182.385 79.5C182.385 78.38 182.625 77.3933 183.105 76.54C183.599 75.6733 184.265 75.0133 185.105 74.56C185.945 74.0933 186.885 73.86 187.925 73.86C188.965 73.86 189.905 74.0933 190.745 74.56C191.585 75.0133 192.245 75.6667 192.725 76.52C193.219 77.3733 193.465 78.3667 193.465 79.5C193.465 80.6333 193.212 81.6333 192.705 82.5C192.212 83.3533 191.539 84.0133 190.685 84.48C189.832 84.9467 188.885 85.18 187.845 85.18ZM187.845 83.58C188.499 83.58 189.112 83.4267 189.685 83.12C190.259 82.8133 190.719 82.3533 191.065 81.74C191.425 81.1267 191.605 80.38 191.605 79.5C191.605 78.62 191.432 77.8733 191.085 77.26C190.739 76.6467 190.285 76.1933 189.725 75.9C189.165 75.5933 188.559 75.44 187.905 75.44C187.239 75.44 186.625 75.5933 186.065 75.9C185.519 76.1933 185.079 76.6467 184.745 77.26C184.412 77.8733 184.245 78.62 184.245 79.5C184.245 80.3933 184.405 81.1467 184.725 81.76C185.059 82.3733 185.499 82.8333 186.045 83.14C186.592 83.4333 187.192 83.58 187.845 83.58ZM201.198 73.84C202.532 73.84 203.612 74.2467 204.438 75.06C205.265 75.86 205.678 77.02 205.678 78.54V85H203.878V78.8C203.878 77.7067 203.605 76.8733 203.058 76.3C202.512 75.7133 201.765 75.42 200.818 75.42C199.858 75.42 199.092 75.72 198.518 76.32C197.958 76.92 197.678 77.7933 197.678 78.94V85H195.858V74.04H197.678V75.6C198.038 75.04 198.525 74.6067 199.138 74.3C199.765 73.9933 200.452 73.84 201.198 73.84ZM209.591 72.26C209.245 72.26 208.951 72.14 208.711 71.9C208.471 71.66 208.351 71.3667 208.351 71.02C208.351 70.6733 208.471 70.38 208.711 70.14C208.951 69.9 209.245 69.78 209.591 69.78C209.925 69.78 210.205 69.9 210.431 70.14C210.671 70.38 210.791 70.6733 210.791 71.02C210.791 71.3667 210.671 71.66 210.431 71.9C210.205 72.14 209.925 72.26 209.591 72.26ZM210.471 74.04V85H208.651V74.04H210.471ZM214.513 72.26C214.167 72.26 213.873 72.14 213.633 71.9C213.393 71.66 213.273 71.3667 213.273 71.02C213.273 70.6733 213.393 70.38 213.633 70.14C213.873 69.9 214.167 69.78 214.513 69.78C214.847 69.78 215.127 69.9 215.353 70.14C215.593 70.38 215.713 70.6733 215.713 71.02C215.713 71.3667 215.593 71.66 215.353 71.9C215.127 72.14 214.847 72.26 214.513 72.26ZM215.393 74.04V85H213.573V74.04H215.393ZM222.375 85.18C221.535 85.18 220.782 85.04 220.115 84.76C219.448 84.4667 218.922 84.0667 218.535 83.56C218.148 83.04 217.935 82.4467 217.895 81.78H219.775C219.828 82.3267 220.082 82.7733 220.535 83.12C221.002 83.4667 221.608 83.64 222.355 83.64C223.048 83.64 223.595 83.4867 223.995 83.18C224.395 82.8733 224.595 82.4867 224.595 82.02C224.595 81.54 224.382 81.1867 223.955 80.96C223.528 80.72 222.868 80.4867 221.975 80.26C221.162 80.0467 220.495 79.8333 219.975 79.62C219.468 79.3933 219.028 79.0667 218.655 78.64C218.295 78.2 218.115 77.6267 218.115 76.92C218.115 76.36 218.282 75.8467 218.615 75.38C218.948 74.9133 219.422 74.5467 220.035 74.28C220.648 74 221.348 73.86 222.135 73.86C223.348 73.86 224.328 74.1667 225.075 74.78C225.822 75.3933 226.222 76.2333 226.275 77.3H224.455C224.415 76.7267 224.182 76.2667 223.755 75.92C223.342 75.5733 222.782 75.4 222.075 75.4C221.422 75.4 220.902 75.54 220.515 75.82C220.128 76.1 219.935 76.4667 219.935 76.92C219.935 77.28 220.048 77.58 220.275 77.82C220.515 78.0467 220.808 78.2333 221.155 78.38C221.515 78.5133 222.008 78.6667 222.635 78.84C223.422 79.0533 224.062 79.2667 224.555 79.48C225.048 79.68 225.468 79.9867 225.815 80.4C226.175 80.8133 226.362 81.3533 226.375 82.02C226.375 82.62 226.208 83.16 225.875 83.64C225.542 84.12 225.068 84.5 224.455 84.78C223.855 85.0467 223.162 85.18 222.375 85.18ZM242.124 73.84C242.978 73.84 243.738 74.02 244.404 74.38C245.071 74.7267 245.598 75.2533 245.984 75.96C246.371 76.6667 246.564 77.5267 246.564 78.54V85H244.764V78.8C244.764 77.7067 244.491 76.8733 243.944 76.3C243.411 75.7133 242.684 75.42 241.764 75.42C240.818 75.42 240.064 75.7267 239.504 76.34C238.944 76.94 238.664 77.8133 238.664 78.96V85H236.864V78.8C236.864 77.7067 236.591 76.8733 236.044 76.3C235.511 75.7133 234.784 75.42 233.864 75.42C232.918 75.42 232.164 75.7267 231.604 76.34C231.044 76.94 230.764 77.8133 230.764 78.96V85H228.944V74.04H230.764V75.62C231.124 75.0467 231.604 74.6067 232.204 74.3C232.818 73.9933 233.491 73.84 234.224 73.84C235.144 73.84 235.958 74.0467 236.664 74.46C237.371 74.8733 237.898 75.48 238.244 76.28C238.551 75.5067 239.058 74.9067 239.764 74.48C240.471 74.0533 241.258 73.84 242.124 73.84ZM259.402 73.86C260.348 73.86 261.175 74.0667 261.882 74.48C262.602 74.8933 263.135 75.4133 263.482 76.04V74.04H265.322V85.24C265.322 86.24 265.108 87.1267 264.682 87.9C264.255 88.6867 263.642 89.3 262.842 89.74C262.055 90.18 261.135 90.4 260.082 90.4C258.642 90.4 257.442 90.06 256.482 89.38C255.522 88.7 254.955 87.7733 254.782 86.6H256.582C256.782 87.2667 257.195 87.8 257.822 88.2C258.448 88.6133 259.202 88.82 260.082 88.82C261.082 88.82 261.895 88.5067 262.522 87.88C263.162 87.2533 263.482 86.3733 263.482 85.24V82.94C263.122 83.58 262.588 84.1133 261.882 84.54C261.175 84.9667 260.348 85.18 259.402 85.18C258.428 85.18 257.542 84.94 256.742 84.46C255.955 83.98 255.335 83.3067 254.882 82.44C254.428 81.5733 254.202 80.5867 254.202 79.48C254.202 78.36 254.428 77.38 254.882 76.54C255.335 75.6867 255.955 75.0267 256.742 74.56C257.542 74.0933 258.428 73.86 259.402 73.86ZM263.482 79.5C263.482 78.6733 263.315 77.9533 262.982 77.34C262.648 76.7267 262.195 76.26 261.622 75.94C261.062 75.6067 260.442 75.44 259.762 75.44C259.082 75.44 258.462 75.6 257.902 75.92C257.342 76.24 256.895 76.7067 256.562 77.32C256.228 77.9333 256.062 78.6533 256.062 79.48C256.062 80.32 256.228 81.0533 256.562 81.68C256.895 82.2933 257.342 82.7667 257.902 83.1C258.462 83.42 259.082 83.58 259.762 83.58C260.442 83.58 261.062 83.42 261.622 83.1C262.195 82.7667 262.648 82.2933 262.982 81.68C263.315 81.0533 263.482 80.3267 263.482 79.5ZM267.717 79.48C267.717 78.36 267.944 77.38 268.397 76.54C268.851 75.6867 269.471 75.0267 270.257 74.56C271.057 74.0933 271.944 73.86 272.917 73.86C273.877 73.86 274.711 74.0667 275.417 74.48C276.124 74.8933 276.651 75.4133 276.997 76.04V74.04H278.837V85H276.997V82.96C276.637 83.6 276.097 84.1333 275.377 84.56C274.671 84.9733 273.844 85.18 272.897 85.18C271.924 85.18 271.044 84.94 270.257 84.46C269.471 83.98 268.851 83.3067 268.397 82.44C267.944 81.5733 267.717 80.5867 267.717 79.48ZM276.997 79.5C276.997 78.6733 276.831 77.9533 276.497 77.34C276.164 76.7267 275.711 76.26 275.137 75.94C274.577 75.6067 273.957 75.44 273.277 75.44C272.597 75.44 271.977 75.6 271.417 75.92C270.857 76.24 270.411 76.7067 270.077 77.32C269.744 77.9333 269.577 78.6533 269.577 79.48C269.577 80.32 269.744 81.0533 270.077 81.68C270.411 82.2933 270.857 82.7667 271.417 83.1C271.977 83.42 272.597 83.58 273.277 83.58C273.957 83.58 274.577 83.42 275.137 83.1C275.711 82.7667 276.164 82.2933 276.497 81.68C276.831 81.0533 276.997 80.3267 276.997 79.5ZM283.733 70.2V85H281.913V70.2H283.733ZM286.155 79.48C286.155 78.36 286.382 77.38 286.835 76.54C287.288 75.6867 287.908 75.0267 288.695 74.56C289.495 74.0933 290.382 73.86 291.355 73.86C292.315 73.86 293.148 74.0667 293.855 74.48C294.562 74.8933 295.088 75.4133 295.435 76.04V74.04H297.275V85H295.435V82.96C295.075 83.6 294.535 84.1333 293.815 84.56C293.108 84.9733 292.282 85.18 291.335 85.18C290.362 85.18 289.482 84.94 288.695 84.46C287.908 83.98 287.288 83.3067 286.835 82.44C286.382 81.5733 286.155 80.5867 286.155 79.48ZM295.435 79.5C295.435 78.6733 295.268 77.9533 294.935 77.34C294.602 76.7267 294.148 76.26 293.575 75.94C293.015 75.6067 292.395 75.44 291.715 75.44C291.035 75.44 290.415 75.6 289.855 75.92C289.295 76.24 288.848 76.7067 288.515 77.32C288.182 77.9333 288.015 78.6533 288.015 79.48C288.015 80.32 288.182 81.0533 288.515 81.68C288.848 82.2933 289.295 82.7667 289.855 83.1C290.415 83.42 291.035 83.58 291.715 83.58C292.395 83.58 293.015 83.42 293.575 83.1C294.148 82.7667 294.602 82.2933 294.935 81.68C295.268 81.0533 295.435 80.3267 295.435 79.5ZM306.071 85L303.471 80.92L300.971 85H299.071L302.611 79.56L299.071 74.04H301.131L303.731 78.1L306.211 74.04H308.111L304.591 79.46L308.131 85H306.071ZM319.361 74.04L312.761 90.16H310.881L313.041 84.88L308.621 74.04H310.641L314.081 82.92L317.481 74.04H319.361ZM321.77 85.12C321.424 85.12 321.13 85 320.89 84.76C320.65 84.52 320.53 84.2267 320.53 83.88C320.53 83.5333 320.65 83.24 320.89 83C321.13 82.76 321.424 82.64 321.77 82.64C322.104 82.64 322.384 82.76 322.61 83C322.85 83.24 322.97 83.5333 322.97 83.88C322.97 84.2267 322.85 84.52 322.61 84.76C322.384 85 322.104 85.12 321.77 85.12ZM64.6217 105.14C64.6217 106.3 64.2217 107.267 63.4217 108.04C62.6351 108.8 61.4284 109.18 59.8017 109.18H57.1217V115H55.3017V101.06H59.8017C61.3751 101.06 62.5684 101.44 63.3817 102.2C64.2084 102.96 64.6217 103.94 64.6217 105.14ZM59.8017 107.68C60.8151 107.68 61.5617 107.46 62.0417 107.02C62.5217 106.58 62.7617 105.953 62.7617 105.14C62.7617 103.42 61.7751 102.56 59.8017 102.56H57.1217V107.68H59.8017ZM68.7038 100.2V115H66.8838V100.2H68.7038ZM81.8056 109.1C81.8056 109.447 81.7856 109.813 81.7456 110.2H72.9856C73.0523 111.28 73.419 112.127 74.0856 112.74C74.7656 113.34 75.5856 113.64 76.5456 113.64C77.3323 113.64 77.9856 113.46 78.5056 113.1C79.039 112.727 79.4123 112.233 79.6256 111.62H81.5856C81.2923 112.673 80.7056 113.533 79.8256 114.2C78.9456 114.853 77.8523 115.18 76.5456 115.18C75.5056 115.18 74.5723 114.947 73.7456 114.48C72.9323 114.013 72.2923 113.353 71.8256 112.5C71.359 111.633 71.1256 110.633 71.1256 109.5C71.1256 108.367 71.3523 107.373 71.8056 106.52C72.259 105.667 72.8923 105.013 73.7056 104.56C74.5323 104.093 75.479 103.86 76.5456 103.86C77.5856 103.86 78.5056 104.087 79.3056 104.54C80.1056 104.993 80.719 105.62 81.1456 106.42C81.5856 107.207 81.8056 108.1 81.8056 109.1ZM79.9256 108.72C79.9256 108.027 79.7723 107.433 79.4656 106.94C79.159 106.433 78.739 106.053 78.2056 105.8C77.6856 105.533 77.1056 105.4 76.4656 105.4C75.5456 105.4 74.759 105.693 74.1056 106.28C73.4656 106.867 73.099 107.68 73.0056 108.72H79.9256ZM83.528 109.48C83.528 108.36 83.7546 107.38 84.208 106.54C84.6613 105.687 85.2813 105.027 86.068 104.56C86.868 104.093 87.7546 103.86 88.728 103.86C89.688 103.86 90.5213 104.067 91.228 104.48C91.9346 104.893 92.4613 105.413 92.808 106.04V104.04H94.648V115H92.808V112.96C92.448 113.6 91.908 114.133 91.188 114.56C90.4813 114.973 89.6546 115.18 88.708 115.18C87.7346 115.18 86.8546 114.94 86.068 114.46C85.2813 113.98 84.6613 113.307 84.208 112.44C83.7546 111.573 83.528 110.587 83.528 109.48ZM92.808 109.5C92.808 108.673 92.6413 107.953 92.308 107.34C91.9746 106.727 91.5213 106.26 90.948 105.94C90.388 105.607 89.768 105.44 89.088 105.44C88.408 105.44 87.788 105.6 87.228 105.92C86.668 106.24 86.2213 106.707 85.888 107.32C85.5546 107.933 85.388 108.653 85.388 109.48C85.388 110.32 85.5546 111.053 85.888 111.68C86.2213 112.293 86.668 112.767 87.228 113.1C87.788 113.42 88.408 113.58 89.088 113.58C89.768 113.58 90.388 113.42 90.948 113.1C91.5213 112.767 91.9746 112.293 92.308 111.68C92.6413 111.053 92.808 110.327 92.808 109.5ZM101.604 115.18C100.764 115.18 100.01 115.04 99.3436 114.76C98.6769 114.467 98.1503 114.067 97.7636 113.56C97.3769 113.04 97.1636 112.447 97.1236 111.78H99.0036C99.0569 112.327 99.3103 112.773 99.7636 113.12C100.23 113.467 100.837 113.64 101.584 113.64C102.277 113.64 102.824 113.487 103.224 113.18C103.624 112.873 103.824 112.487 103.824 112.02C103.824 111.54 103.61 111.187 103.184 110.96C102.757 110.72 102.097 110.487 101.204 110.26C100.39 110.047 99.7236 109.833 99.2036 109.62C98.6969 109.393 98.2569 109.067 97.8836 108.64C97.5236 108.2 97.3436 107.627 97.3436 106.92C97.3436 106.36 97.5103 105.847 97.8436 105.38C98.1769 104.913 98.6503 104.547 99.2636 104.28C99.8769 104 100.577 103.86 101.364 103.86C102.577 103.86 103.557 104.167 104.304 104.78C105.05 105.393 105.45 106.233 105.504 107.3H103.684C103.644 106.727 103.41 106.267 102.984 105.92C102.57 105.573 102.01 105.4 101.304 105.4C100.65 105.4 100.13 105.54 99.7436 105.82C99.3569 106.1 99.1636 106.467 99.1636 106.92C99.1636 107.28 99.2769 107.58 99.5036 107.82C99.7436 108.047 100.037 108.233 100.384 108.38C100.744 108.513 101.237 108.667 101.864 108.84C102.65 109.053 103.29 109.267 103.784 109.48C104.277 109.68 104.697 109.987 105.044 110.4C105.404 110.813 105.59 111.353 105.604 112.02C105.604 112.62 105.437 113.16 105.104 113.64C104.77 114.12 104.297 114.5 103.684 114.78C103.084 115.047 102.39 115.18 101.604 115.18ZM118.173 109.1C118.173 109.447 118.153 109.813 118.113 110.2H109.353C109.419 111.28 109.786 112.127 110.453 112.74C111.133 113.34 111.953 113.64 112.913 113.64C113.699 113.64 114.353 113.46 114.873 113.1C115.406 112.727 115.779 112.233 115.993 111.62H117.953C117.659 112.673 117.073 113.533 116.193 114.2C115.313 114.853 114.219 115.18 112.913 115.18C111.873 115.18 110.939 114.947 110.113 114.48C109.299 114.013 108.659 113.353 108.193 112.5C107.726 111.633 107.493 110.633 107.493 109.5C107.493 108.367 107.719 107.373 108.173 106.52C108.626 105.667 109.259 105.013 110.073 104.56C110.899 104.093 111.846 103.86 112.913 103.86C113.953 103.86 114.873 104.087 115.673 104.54C116.473 104.993 117.086 105.62 117.513 106.42C117.953 107.207 118.173 108.1 118.173 109.1ZM116.293 108.72C116.293 108.027 116.139 107.433 115.833 106.94C115.526 106.433 115.106 106.053 114.573 105.8C114.053 105.533 113.473 105.4 112.833 105.4C111.913 105.4 111.126 105.693 110.473 106.28C109.833 106.867 109.466 107.68 109.373 108.72H116.293ZM135.907 109.1C135.907 109.447 135.887 109.813 135.847 110.2H127.087C127.154 111.28 127.521 112.127 128.187 112.74C128.867 113.34 129.687 113.64 130.647 113.64C131.434 113.64 132.087 113.46 132.607 113.1C133.141 112.727 133.514 112.233 133.727 111.62H135.687C135.394 112.673 134.807 113.533 133.927 114.2C133.047 114.853 131.954 115.18 130.647 115.18C129.607 115.18 128.674 114.947 127.847 114.48C127.034 114.013 126.394 113.353 125.927 112.5C125.461 111.633 125.227 110.633 125.227 109.5C125.227 108.367 125.454 107.373 125.907 106.52C126.361 105.667 126.994 105.013 127.807 104.56C128.634 104.093 129.581 103.86 130.647 103.86C131.687 103.86 132.607 104.087 133.407 104.54C134.207 104.993 134.821 105.62 135.247 106.42C135.687 107.207 135.907 108.1 135.907 109.1ZM134.027 108.72C134.027 108.027 133.874 107.433 133.567 106.94C133.261 106.433 132.841 106.053 132.307 105.8C131.787 105.533 131.207 105.4 130.567 105.4C129.647 105.4 128.861 105.693 128.207 106.28C127.567 106.867 127.201 107.68 127.107 108.72H134.027ZM143.65 103.84C144.983 103.84 146.063 104.247 146.89 105.06C147.716 105.86 148.13 107.02 148.13 108.54V115H146.33V108.8C146.33 107.707 146.056 106.873 145.51 106.3C144.963 105.713 144.216 105.42 143.27 105.42C142.31 105.42 141.543 105.72 140.97 106.32C140.41 106.92 140.13 107.793 140.13 108.94V115H138.31V104.04H140.13V105.6C140.49 105.04 140.976 104.607 141.59 104.3C142.216 103.993 142.903 103.84 143.65 103.84ZM152.083 102.26C151.736 102.26 151.443 102.14 151.203 101.9C150.976 101.66 150.863 101.367 150.863 101.02C150.863 100.673 150.976 100.38 151.203 100.14C151.443 99.9 151.736 99.78 152.083 99.78C152.429 99.78 152.716 99.9 152.943 100.14C153.183 100.38 153.303 100.673 153.303 101.02C153.303 101.367 153.183 101.66 152.943 101.9C152.716 102.14 152.429 102.26 152.083 102.26ZM152.983 117.38C152.983 118.353 152.736 119.067 152.243 119.52C151.749 119.973 151.029 120.2 150.083 120.2H149.022V118.66H149.783C150.289 118.66 150.643 118.56 150.843 118.36C151.056 118.16 151.163 117.82 151.163 117.34V104.04H152.983V117.38ZM160.843 115.18C159.817 115.18 158.883 114.947 158.043 114.48C157.217 114.013 156.563 113.353 156.083 112.5C155.617 111.633 155.383 110.633 155.383 109.5C155.383 108.38 155.623 107.393 156.103 106.54C156.597 105.673 157.263 105.013 158.103 104.56C158.943 104.093 159.883 103.86 160.923 103.86C161.963 103.86 162.903 104.093 163.743 104.56C164.583 105.013 165.243 105.667 165.723 106.52C166.217 107.373 166.463 108.367 166.463 109.5C166.463 110.633 166.21 111.633 165.703 112.5C165.21 113.353 164.537 114.013 163.683 114.48C162.83 114.947 161.883 115.18 160.843 115.18ZM160.843 113.58C161.497 113.58 162.11 113.427 162.683 113.12C163.257 112.813 163.717 112.353 164.063 111.74C164.423 111.127 164.603 110.38 164.603 109.5C164.603 108.62 164.43 107.873 164.083 107.26C163.737 106.647 163.283 106.193 162.723 105.9C162.163 105.593 161.557 105.44 160.903 105.44C160.237 105.44 159.623 105.593 159.063 105.9C158.517 106.193 158.077 106.647 157.743 107.26C157.41 107.873 157.243 108.62 157.243 109.5C157.243 110.393 157.403 111.147 157.723 111.76C158.057 112.373 158.497 112.833 159.043 113.14C159.59 113.433 160.19 113.58 160.843 113.58ZM178.296 104.04L171.696 120.16H169.816L171.976 114.88L167.556 104.04H169.576L173.016 112.92L176.416 104.04H178.296ZM194.898 104.04L188.298 120.16H186.418L188.578 114.88L184.158 104.04H186.178L189.618 112.92L193.018 104.04H194.898ZM201.508 115.18C200.481 115.18 199.548 114.947 198.708 114.48C197.881 114.013 197.228 113.353 196.748 112.5C196.281 111.633 196.048 110.633 196.048 109.5C196.048 108.38 196.288 107.393 196.768 106.54C197.261 105.673 197.928 105.013 198.768 104.56C199.608 104.093 200.548 103.86 201.588 103.86C202.628 103.86 203.568 104.093 204.408 104.56C205.248 105.013 205.908 105.667 206.388 106.52C206.881 107.373 207.128 108.367 207.128 109.5C207.128 110.633 206.874 111.633 206.368 112.5C205.874 113.353 205.201 114.013 204.348 114.48C203.494 114.947 202.548 115.18 201.508 115.18ZM201.508 113.58C202.161 113.58 202.774 113.427 203.348 113.12C203.921 112.813 204.381 112.353 204.728 111.74C205.088 111.127 205.268 110.38 205.268 109.5C205.268 108.62 205.094 107.873 204.748 107.26C204.401 106.647 203.948 106.193 203.388 105.9C202.828 105.593 202.221 105.44 201.568 105.44C200.901 105.44 200.288 105.593 199.728 105.9C199.181 106.193 198.741 106.647 198.408 107.26C198.074 107.873 197.908 108.62 197.908 109.5C197.908 110.393 198.068 111.147 198.388 111.76C198.721 112.373 199.161 112.833 199.708 113.14C200.254 113.433 200.854 113.58 201.508 113.58ZM219.24 104.04V115H217.42V113.38C217.074 113.94 216.587 114.38 215.96 114.7C215.347 115.007 214.667 115.16 213.92 115.16C213.067 115.16 212.3 114.987 211.62 114.64C210.94 114.28 210.4 113.747 210 113.04C209.614 112.333 209.42 111.473 209.42 110.46V104.04H211.22V110.22C211.22 111.3 211.494 112.133 212.04 112.72C212.587 113.293 213.334 113.58 214.28 113.58C215.254 113.58 216.02 113.28 216.58 112.68C217.14 112.08 217.42 111.207 217.42 110.06V104.04H219.24ZM224.133 105.82C224.453 105.193 224.907 104.707 225.493 104.36C226.093 104.013 226.82 103.84 227.673 103.84V105.72H227.193C225.153 105.72 224.133 106.827 224.133 109.04V115H222.313V104.04H224.133V105.82ZM236.086 102.26C235.74 102.26 235.446 102.14 235.206 101.9C234.98 101.66 234.866 101.367 234.866 101.02C234.866 100.673 234.98 100.38 235.206 100.14C235.446 99.9 235.74 99.78 236.086 99.78C236.433 99.78 236.72 99.9 236.946 100.14C237.186 100.38 237.306 100.673 237.306 101.02C237.306 101.367 237.186 101.66 236.946 101.9C236.72 102.14 236.433 102.26 236.086 102.26ZM236.986 117.38C236.986 118.353 236.74 119.067 236.246 119.52C235.753 119.973 235.033 120.2 234.086 120.2H233.026V118.66H233.786C234.293 118.66 234.646 118.56 234.846 118.36C235.06 118.16 235.166 117.82 235.166 117.34V104.04H236.986V117.38ZM244.847 115.18C243.821 115.18 242.887 114.947 242.047 114.48C241.221 114.013 240.567 113.353 240.087 112.5C239.621 111.633 239.387 110.633 239.387 109.5C239.387 108.38 239.627 107.393 240.107 106.54C240.601 105.673 241.267 105.013 242.107 104.56C242.947 104.093 243.887 103.86 244.927 103.86C245.967 103.86 246.907 104.093 247.747 104.56C248.587 105.013 249.247 105.667 249.727 106.52C250.221 107.373 250.467 108.367 250.467 109.5C250.467 110.633 250.214 111.633 249.707 112.5C249.214 113.353 248.541 114.013 247.687 114.48C246.834 114.947 245.887 115.18 244.847 115.18ZM244.847 113.58C245.501 113.58 246.114 113.427 246.687 113.12C247.261 112.813 247.721 112.353 248.067 111.74C248.427 111.127 248.607 110.38 248.607 109.5C248.607 108.62 248.434 107.873 248.087 107.26C247.741 106.647 247.287 106.193 246.727 105.9C246.167 105.593 245.561 105.44 244.907 105.44C244.241 105.44 243.627 105.593 243.067 105.9C242.521 106.193 242.081 106.647 241.747 107.26C241.414 107.873 241.247 108.62 241.247 109.5C241.247 110.393 241.407 111.147 241.727 111.76C242.061 112.373 242.501 112.833 243.047 113.14C243.594 113.433 244.194 113.58 244.847 113.58ZM262.58 104.04V115H260.76V113.38C260.414 113.94 259.927 114.38 259.3 114.7C258.687 115.007 258.007 115.16 257.26 115.16C256.407 115.16 255.64 114.987 254.96 114.64C254.28 114.28 253.74 113.747 253.34 113.04C252.954 112.333 252.76 111.473 252.76 110.46V104.04H254.56V110.22C254.56 111.3 254.834 112.133 255.38 112.72C255.927 113.293 256.674 113.58 257.62 113.58C258.594 113.58 259.36 113.28 259.92 112.68C260.48 112.08 260.76 111.207 260.76 110.06V104.04H262.58ZM267.473 105.82C267.793 105.193 268.247 104.707 268.833 104.36C269.433 104.013 270.16 103.84 271.013 103.84V105.72H270.533C268.493 105.72 267.473 106.827 267.473 109.04V115H265.653V104.04H267.473V105.82ZM278.454 103.84C279.788 103.84 280.868 104.247 281.694 105.06C282.521 105.86 282.934 107.02 282.934 108.54V115H281.134V108.8C281.134 107.707 280.861 106.873 280.314 106.3C279.768 105.713 279.021 105.42 278.074 105.42C277.114 105.42 276.348 105.72 275.774 106.32C275.214 106.92 274.934 107.793 274.934 108.94V115H273.114V104.04H274.934V105.6C275.294 105.04 275.781 104.607 276.394 104.3C277.021 103.993 277.708 103.84 278.454 103.84ZM295.907 109.1C295.907 109.447 295.887 109.813 295.847 110.2H287.087C287.154 111.28 287.521 112.127 288.187 112.74C288.867 113.34 289.687 113.64 290.647 113.64C291.434 113.64 292.087 113.46 292.607 113.1C293.141 112.727 293.514 112.233 293.727 111.62H295.687C295.394 112.673 294.807 113.533 293.927 114.2C293.047 114.853 291.954 115.18 290.647 115.18C289.607 115.18 288.674 114.947 287.847 114.48C287.034 114.013 286.394 113.353 285.927 112.5C285.461 111.633 285.227 110.633 285.227 109.5C285.227 108.367 285.454 107.373 285.907 106.52C286.361 105.667 286.994 105.013 287.807 104.56C288.634 104.093 289.581 103.86 290.647 103.86C291.687 103.86 292.607 104.087 293.407 104.54C294.207 104.993 294.821 105.62 295.247 106.42C295.687 107.207 295.907 108.1 295.907 109.1ZM294.027 108.72C294.027 108.027 293.874 107.433 293.567 106.94C293.261 106.433 292.841 106.053 292.307 105.8C291.787 105.533 291.207 105.4 290.567 105.4C289.647 105.4 288.861 105.693 288.207 106.28C287.567 106.867 287.201 107.68 287.107 108.72H294.027ZM307.75 104.04L301.15 120.16H299.27L301.43 114.88L297.01 104.04H299.03L302.47 112.92L305.87 104.04H307.75ZM310.159 115.12C309.812 115.12 309.519 115 309.279 114.76C309.039 114.52 308.919 114.227 308.919 113.88C308.919 113.533 309.039 113.24 309.279 113C309.519 112.76 309.812 112.64 310.159 112.64C310.492 112.64 310.772 112.76 310.999 113C311.239 113.24 311.359 113.533 311.359 113.88C311.359 114.227 311.239 114.52 310.999 114.76C310.772 115 310.492 115.12 310.159 115.12Z" fill="white"/>
<path d="M102.496 6C98.2214 5.85 96.0464 8.025 96.0464 12.6V15.6V48.9C96.0464 53.4 98.2214 55.575 102.496 55.5V56.925C102.496 56.925 92.8214 54.75 80.2964 56.925V55.5C84.6464 55.65 86.8214 53.4 86.8214 48.9V48.6V27.45C84.7964 29.4 80.8964 30.075 76.7714 30.675C69.1214 31.8 61.0964 33 61.3214 42.375H61.0964V48.825C61.0964 53.325 63.2714 55.5 67.6214 55.425V56.85C67.6214 56.85 57.9464 54.675 45.4214 56.85V55.425C49.6964 55.575 51.8714 53.4 51.8714 48.825V48.525V12.525C51.8714 8.025 49.6964 5.85 45.4214 5.925V4.5C45.4214 4.5 55.0964 6.675 67.6214 4.5V5.925C63.2714 5.775 61.0964 7.95 61.0964 12.525V15.525V36C64.0214 30.9 70.8464 29.925 76.5464 29.025C82.7714 28.125 86.5964 27.375 86.5964 24H86.8214V12.525C86.8214 8.1 84.6464 5.925 80.2964 6V4.5C80.2964 4.5 89.9714 6.75 102.496 4.5V6ZM130.988 25.05C134.138 28.5 135.788 33 136.013 38.625C136.013 44.025 134.138 48.6 130.538 52.275C126.938 56.025 122.663 57.9 117.638 57.9C112.688 57.9 108.488 56.1 105.038 52.5C101.588 48.975 99.9382 44.55 99.9382 39.3C99.9382 33.9 101.588 29.325 105.038 25.575C108.488 21.75 112.913 19.875 118.313 19.875C123.638 19.95 127.838 21.675 130.988 25.05ZM124.163 51.075C125.888 47.7 126.788 43.5 126.788 38.625C126.788 33.525 126.038 29.475 124.538 26.325C123.113 23.25 121.013 21.375 118.313 21.375C115.763 21.375 113.588 23.4 111.863 26.85C110.213 30.225 109.388 34.35 109.388 39.225C109.388 43.95 110.213 47.925 111.863 51.3C113.513 54.525 115.538 56.625 117.938 56.625C120.413 56.625 122.513 54.45 124.163 51.075ZM170.943 48.375C171.018 53.1 172.668 55.5 175.968 55.725V57C175.968 57 167.943 54.375 157.218 57V55.725C157.743 55.65 158.193 55.65 158.643 55.5C158.718 55.425 158.793 55.425 158.868 55.35C159.393 55.2 159.768 54.975 160.143 54.6C160.968 53.925 161.493 53.025 161.793 51.825C161.793 51.675 161.868 51.525 161.868 51.45C162.093 50.55 162.168 49.5 162.168 48.375L162.393 31.125C162.393 28.875 161.718 27 160.443 25.425C159.093 23.85 157.368 23.025 155.193 23.025C153.243 23.025 151.593 23.85 150.243 25.5C148.893 27.075 148.218 28.95 148.218 31.125V48.075C148.218 48.3 148.293 48.45 148.293 48.6C148.293 49.65 148.368 50.55 148.593 51.375C148.593 51.45 148.593 51.525 148.668 51.6C149.268 54.15 150.843 55.575 153.243 55.725C153.318 55.725 153.318 56.925 153.318 56.925C153.243 57 145.218 54.375 134.493 57V55.725C135.018 55.65 135.468 55.575 135.918 55.425C135.993 55.425 136.068 55.35 136.143 55.35C136.593 55.2 137.043 54.9 137.418 54.6C138.243 53.925 138.768 52.95 139.068 51.675C139.068 51.6 139.143 51.525 139.143 51.45C139.368 50.55 139.443 49.5 139.443 48.375L139.518 29.4C139.518 25.275 140.193 23.175 134.718 23.175V22.725C134.718 22.725 142.368 18.15 146.193 20.775C147.693 21.75 148.143 23.85 148.218 25.575C151.068 22.35 154.593 20.025 158.868 20.025C162.543 19.875 165.543 20.925 167.718 23.1C169.818 25.2 170.868 28.275 170.868 32.25L170.943 48.375ZM190.112 48.45C190.187 53.175 191.837 55.65 195.137 55.8V57.075C195.137 57.075 187.112 54.525 176.387 57.075V55.8C176.912 55.8 177.287 55.725 177.737 55.575C177.812 55.575 177.962 55.5 178.037 55.5C178.487 55.275 178.937 55.05 179.312 54.75C179.312 54.75 179.312 54.675 179.387 54.675C180.137 54 180.662 53.175 180.962 51.9C180.962 51.825 181.037 51.675 181.037 51.6C181.262 50.7 181.337 49.65 181.337 48.45L181.487 29.475C181.487 25.35 182.087 23.25 176.612 23.25V22.8C176.612 22.8 190.112 14.7 190.112 25.95C190.187 25.8 190.112 48.45 190.112 48.45ZM185.762 14.475C182.987 14.475 180.812 12.3 180.812 9.525C180.812 6.825 182.987 4.575 185.762 4.575C188.462 4.575 190.712 6.825 190.712 9.525C190.712 12.3 188.462 14.475 185.762 14.475ZM208.642 48.45C208.717 53.175 210.367 55.65 213.667 55.8V57.075C213.667 57.075 205.642 54.525 194.917 57.075V55.8C195.442 55.8 195.817 55.725 196.267 55.575C196.342 55.575 196.492 55.5 196.567 55.5C197.017 55.275 197.467 55.05 197.842 54.75C197.842 54.75 197.842 54.675 197.917 54.675C198.667 54 199.192 53.175 199.492 51.9C199.492 51.825 199.567 51.675 199.567 51.6C199.792 50.7 199.867 49.65 199.867 48.45L200.017 29.475C200.017 25.35 200.617 23.25 195.142 23.25V22.8C195.142 22.8 208.642 14.7 208.642 25.95C208.717 25.8 208.642 48.45 208.642 48.45ZM204.292 14.475C201.517 14.475 199.342 12.3 199.342 9.525C199.342 6.825 201.517 4.575 204.292 4.575C206.992 4.575 209.242 6.825 209.242 9.525C209.242 12.3 206.992 14.475 204.292 14.475ZM239.344 46.2C239.194 48.225 238.894 50.325 237.844 52.125C236.344 54.525 234.169 56.325 231.544 57.225C228.919 58.125 226.294 58.125 223.594 57.75C220.069 57.225 213.919 54.375 213.469 49.275C213.319 47.7 213.919 42.075 221.569 42.15C219.694 43.65 218.044 46.725 218.119 48.825C218.194 51.975 219.469 53.85 222.244 55.275C223.969 56.25 230.119 57.975 233.494 53.85C235.219 51.75 235.219 48.6 233.494 46.5C232.819 45.675 231.769 45 230.269 44.325C228.319 43.5 226.519 42.825 224.869 42.3C222.844 41.55 221.344 40.95 220.369 40.575C216.019 38.4 213.919 35.1 213.994 30.525C214.144 27.6 215.119 25.125 217.069 23.1C219.169 21.15 222.019 20.1 225.619 20.175C229.219 20.175 233.419 21.3 235.969 24C237.019 25.2 237.769 26.7 237.844 28.275C237.844 31.2 235.219 33.75 230.494 33.525C231.469 32.1 231.919 30.375 231.919 28.5C231.919 26.475 231.319 24.375 229.894 22.95C229.294 22.35 228.544 21.9 227.794 21.675C226.594 21.375 223.819 21.075 220.969 23.325C219.994 24.15 219.544 25.5 219.394 26.85C219.244 28.125 219.694 29.325 220.669 30.3C221.494 31.05 223.594 32.175 227.119 33.45C230.344 34.575 232.669 35.55 234.019 36.3C237.769 38.625 239.494 41.85 239.344 46.2ZM295.634 48.375C295.634 53.1 297.284 55.575 300.584 55.8V57C300.584 57 292.559 54.45 281.834 57V55.8C282.359 55.725 282.809 55.65 283.259 55.5C283.334 55.5 283.409 55.425 283.484 55.425C284.009 55.275 284.384 54.975 284.759 54.675C286.484 53.1 286.859 50.625 286.784 48.45L286.859 43.5V31.125C286.859 30.675 286.859 30.3 286.784 29.925C286.484 27.525 285.209 25.2 283.034 24C280.409 22.575 277.784 23.25 275.909 25.5C274.784 26.85 274.109 28.725 274.109 30.525C274.109 32.775 274.184 34.275 274.259 36.525C274.259 40.275 274.259 44.625 274.259 48.45C274.334 53.1 275.984 55.575 279.284 55.8V57C279.284 57 271.259 54.45 260.534 57V55.8C261.059 55.725 261.434 55.65 261.884 55.5C261.959 55.5 262.109 55.425 262.184 55.425C262.634 55.275 263.084 54.975 263.459 54.675C265.184 53.175 265.484 50.625 265.484 48.45L265.634 31.2C265.709 27.15 262.859 23.175 258.509 23.175C258.059 23.175 257.609 23.25 257.234 23.325C257.009 23.4 256.784 23.475 256.559 23.55C256.334 23.625 256.184 23.625 256.034 23.775C255.809 23.85 255.659 23.925 255.434 24C254.759 24.375 254.084 24.9 253.559 25.575C253.259 25.875 253.109 26.175 252.884 26.55C252.809 26.7 252.884 29.85 252.884 30.825C252.884 34.725 252.809 38.1 252.809 42C252.809 43.575 252.809 45.075 252.809 46.65C252.734 48.975 252.659 51.375 253.859 53.475C254.234 54.15 254.834 54.75 255.509 55.125C255.884 55.35 256.259 55.5 256.634 55.575C256.859 55.65 257.459 55.725 257.759 55.725C257.834 55.8 257.834 57 257.834 57C257.759 57 249.734 54.45 239.009 57V55.725C239.534 55.725 239.984 55.65 240.434 55.5C240.509 55.425 240.584 55.425 240.659 55.425C241.109 55.2 241.559 54.975 241.934 54.675C243.584 53.175 243.884 50.775 243.959 48.75C243.959 48.525 243.959 48.3 243.959 48V36.225C244.034 36.225 244.034 29.475 244.034 29.475C244.034 25.35 244.709 22.875 239.234 22.875V22.425C239.234 22.425 246.884 18.225 250.709 20.775C251.534 21.375 252.134 22.425 252.359 23.4C252.434 23.475 252.734 24.525 252.659 24.6C254.609 22.725 256.859 20.85 259.559 20.4C260.534 20.175 261.509 20.025 262.634 20.025C266.234 20.025 269.009 21.075 271.034 23.175C271.934 24.075 272.609 25.05 273.059 26.25C273.359 25.8 274.334 24.6 274.559 24.375C274.934 23.85 275.384 23.4 275.759 23.025C275.984 22.875 276.134 22.8 276.284 22.65C278.459 20.925 281.009 19.95 284.084 20.025C287.684 20.025 290.459 21.075 292.484 23.1C294.509 25.125 295.559 28.2 295.634 32.25V42.225C295.634 42.45 295.634 48.375 295.634 48.375ZM310.288 49.425C311.263 50.325 311.788 51.525 311.788 52.95C311.788 54.45 311.263 55.65 310.288 56.625C309.313 57.675 308.188 58.125 306.763 58.125C305.338 58.125 304.138 57.675 303.163 56.625C302.113 55.65 301.663 54.45 301.663 52.95C301.663 51.525 302.113 50.325 303.163 49.35C304.138 48.375 305.338 47.85 306.763 47.85C308.188 47.85 309.313 48.375 310.288 49.425Z" fill="white"/>
</svg>
