<svg width="232" height="300" viewBox="0 0 232 300" fill="none" xmlns="http://www.w3.org/2000/svg">
<g clip-path="url(#clip0_11_412)">
<path d="M85.6258 119.449C86.3281 123.086 86.8984 123.606 90.8811 124.249C86.8984 124.89 86.3281 125.41 85.6258 129.047C84.9234 125.41 84.3531 124.89 80.3705 124.249C84.3531 123.606 84.9234 123.086 85.6258 119.449Z" fill="#FFC0A7"/>
<path d="M13.928 162.719C14.3631 164.971 14.7159 165.292 17.182 165.69C14.7159 166.087 14.3631 166.409 13.928 168.661C13.4929 166.409 13.1412 166.087 10.6751 165.69C13.1412 165.292 13.4929 164.971 13.928 162.719Z" fill="#FFC0A7"/>
<path d="M13.4105 40.082C13.7791 41.9869 14.078 42.2598 16.1617 42.5945C14.078 42.9311 13.777 43.2041 13.4105 45.108C13.0419 43.2022 12.743 42.9292 10.6582 42.5945C12.743 42.2579 13.044 41.985 13.4105 40.082Z" fill="#ECC889" fill-opacity="0.3"/>
<path d="M131.524 87.9572C131.894 89.863 132.192 90.135 134.277 90.4707C132.192 90.8073 131.892 91.0793 131.524 92.9832C131.156 91.0774 130.858 90.8054 128.773 90.4707C130.858 90.1331 131.158 89.8611 131.524 87.9572Z" fill="#ECC889" fill-opacity="0.3"/>
<mask id="mask0_11_412" style="mask-type:luminance" maskUnits="userSpaceOnUse" x="132" y="155" width="16" height="14">
<path d="M132.859 155.062H147.594V168.395H132.859V155.062Z" fill="white"/>
</mask>
<g mask="url(#mask0_11_412)">
<path d="M140.331 155.091C141.301 160.112 142.089 160.83 147.588 161.718C142.091 162.603 141.303 163.323 140.331 168.345C139.362 163.325 138.574 162.605 133.075 161.718C138.572 160.832 139.36 160.114 140.331 155.091Z" fill="#FFC0A7"/>
</g>
<path d="M66.9765 11.767C67.9028 16.5577 68.6526 17.2434 73.8995 18.0893C68.6547 18.9352 67.9028 19.62 66.9765 24.4117C66.0503 19.62 65.2994 18.9352 60.0525 18.0893C65.2973 17.2434 66.0503 16.5577 66.9765 11.767Z" fill="#ECC889" fill-opacity="0.3"/>
<path d="M71.6383 175.594C72.5878 180.5 73.3567 181.204 78.7271 182.068C73.3567 182.935 72.5857 183.637 71.6383 188.542C70.6899 183.637 69.9211 182.933 64.5496 182.068C69.9211 181.202 70.692 180.5 71.6383 175.594Z" fill="#ECC889" fill-opacity="0.3"/>
<path d="M46.9797 31.441C47.6155 34.7319 48.1319 35.2016 51.7334 35.7822C48.1298 36.3629 47.6155 36.8345 46.9797 40.1235C46.3439 36.8326 45.8275 36.3629 42.226 35.7822C45.8296 35.2016 46.3439 34.7299 46.9797 31.441Z" fill="#ECC889" fill-opacity="0.3"/>
<path d="M68.9452 104.402C69.7595 108.614 70.4206 109.218 75.0327 109.961C70.4206 110.705 69.7595 111.309 68.9452 115.521C68.1309 111.309 67.4698 110.705 62.8566 109.961C67.4698 109.218 68.1309 108.614 68.9452 104.402Z" fill="#BBBEA0" fill-opacity="0.5"/>
<path d="M97.0225 155.141C97.6815 158.546 98.2138 159.033 101.944 159.634C98.2159 160.236 97.6815 160.722 97.0225 164.129C96.3635 160.722 95.8312 160.236 92.1009 159.634C95.8291 159.033 96.3635 158.546 97.0225 155.141Z" fill="#ECC889" fill-opacity="0.3"/>
<path d="M52.16 175.678C52.931 179.66 53.5552 180.231 57.9149 180.933C53.5531 181.637 52.9289 182.206 52.16 186.187C51.389 182.206 50.7659 181.635 46.4052 180.933C50.768 180.229 51.3912 179.66 52.16 175.678Z" fill="#ECC889" fill-opacity="0.3"/>
<path d="M46.3576 180.219C47.1286 184.2 47.7528 184.772 52.1125 185.475C47.7507 186.179 47.1265 186.748 46.3576 190.729C45.5867 186.748 44.9635 186.177 40.6038 185.475C44.9657 184.77 45.5888 184.2 46.3576 180.219Z" fill="#ECC889" fill-opacity="0.3"/>
<path d="M116.294 172.269C117.131 176.599 117.809 177.218 122.55 177.982C117.809 178.747 117.131 179.365 116.294 183.695C115.457 179.365 114.779 178.747 110.038 177.982C114.779 177.218 115.457 176.599 116.294 172.269Z" fill="#BBBEA0" fill-opacity="0.5"/>
<path d="M98.4737 47.0583C98.9975 49.7704 99.4221 50.1601 102.394 50.6385C99.4242 51.1179 98.9975 51.5056 98.4737 54.2188C97.9488 51.5075 97.5242 51.1179 94.5533 50.6385C97.5221 50.1601 97.9488 49.7724 98.4737 47.0583Z" fill="#ECC889" fill-opacity="0.3"/>
<path d="M6.05449 148.731C7.06943 153.982 7.89216 154.736 13.6449 155.663C7.89216 156.59 7.06943 157.341 6.05449 162.595C5.03849 157.343 4.21576 156.59 -1.53595 155.663C4.21576 154.736 5.03849 153.984 6.05449 148.731Z" fill="#ECC889" fill-opacity="0.3"/>
<path d="M49.7774 25.4543C50.1671 27.473 50.4839 27.7623 52.6965 28.1202C50.4861 28.4761 50.1692 28.7654 49.7774 30.7861C49.3877 28.7674 49.0708 28.478 46.8572 28.1202C49.0687 27.7643 49.3856 27.4749 49.7774 25.4543Z" fill="#BBBEA0" fill-opacity="0.5"/>
<path d="M42.0064 187.631C42.9094 192.307 43.6434 192.975 48.7614 193.8C43.6434 194.626 42.9094 195.295 42.0064 199.969C41.1034 195.293 40.3694 194.626 35.2513 193.8C40.3694 192.975 41.1034 192.305 42.0064 187.631Z" fill="#FFC0A7"/>
<path d="M122.407 48.8407C123.267 53.2861 123.963 53.9217 128.829 54.7058C123.961 55.4909 123.265 56.1265 122.407 60.57C121.547 56.1246 120.851 55.489 115.985 54.7058C120.853 53.9198 121.549 53.2841 122.407 48.8407Z" fill="#BBBEA0" fill-opacity="0.5"/>
<path d="M50.5019 60.6983C51.0933 63.7587 51.5739 64.1956 54.9218 64.7348C51.5718 65.2739 51.0933 65.7128 50.5019 68.7712C49.9115 65.7108 49.431 65.2739 46.082 64.7348C49.4331 64.1956 49.9115 63.7568 50.5019 60.6983Z" fill="#FFC0A7"/>
</g>
<g clip-path="url(#clip1_11_412)">
<path d="M73.5798 100.039C73.9928 102.173 74.3286 102.479 76.6659 102.856C74.3286 103.232 73.9928 103.539 73.5798 105.673C73.1679 103.539 72.8321 103.232 70.4949 102.856C72.8321 102.479 73.1679 102.173 73.5798 100.039Z" fill="#ECC889" fill-opacity="0.3"/>
<path d="M169.626 219.449C170.328 223.086 170.898 223.606 174.881 224.249C170.898 224.89 170.328 225.41 169.626 229.047C168.923 225.41 168.353 224.89 164.37 224.249C168.353 223.606 168.923 223.086 169.626 219.449Z" fill="#FFC0A7"/>
<path d="M97.928 262.719C98.3631 264.971 98.7158 265.292 101.182 265.69C98.7158 266.087 98.3631 266.409 97.928 268.661C97.4928 266.409 97.1412 266.087 94.6751 265.69C97.1412 265.292 97.4928 264.971 97.928 262.719Z" fill="#FFC0A7"/>
<path d="M97.4105 140.082C97.7791 141.987 98.078 142.26 100.162 142.595C98.078 142.931 97.777 143.204 97.4105 145.108C97.0419 143.202 96.743 142.929 94.6582 142.595C96.743 142.258 97.044 141.985 97.4105 140.082Z" fill="#ECC889" fill-opacity="0.3"/>
<path d="M215.524 187.957C215.894 189.863 216.192 190.135 218.277 190.471C216.192 190.807 215.892 191.079 215.524 192.983C215.156 191.077 214.858 190.805 212.773 190.471C214.858 190.133 215.158 189.861 215.524 187.957Z" fill="#ECC889" fill-opacity="0.3"/>
<mask id="mask1_11_412" style="mask-type:luminance" maskUnits="userSpaceOnUse" x="216" y="255" width="16" height="14">
<path d="M216.859 255.062H231.594V268.395H216.859V255.062Z" fill="white"/>
</mask>
<g mask="url(#mask1_11_412)">
<path d="M224.331 255.091C225.301 260.112 226.089 260.83 231.588 261.718C226.091 262.603 225.303 263.323 224.331 268.345C223.362 263.325 222.574 262.605 217.075 261.718C222.572 260.832 223.36 260.114 224.331 255.091Z" fill="#FFC0A7"/>
</g>
<path d="M150.977 111.767C151.903 116.558 152.653 117.243 157.899 118.089C152.655 118.935 151.903 119.62 150.977 124.412C150.05 119.62 149.299 118.935 144.053 118.089C149.297 117.243 150.05 116.558 150.977 111.767Z" fill="#ECC889" fill-opacity="0.3"/>
<path d="M70.1611 220.774C70.8635 224.411 71.4338 224.932 75.4165 225.573C71.4338 226.214 70.8635 226.735 70.1611 230.371C69.4588 226.735 68.8885 226.214 64.9058 225.573C68.8885 224.932 69.4588 224.411 70.1611 220.774Z" fill="#ECC889" fill-opacity="0.3"/>
<path d="M155.638 275.594C156.588 280.5 157.357 281.204 162.727 282.068C157.357 282.935 156.586 283.637 155.638 288.542C154.69 283.637 153.921 282.933 148.55 282.068C153.921 281.202 154.692 280.5 155.638 275.594Z" fill="#ECC889" fill-opacity="0.3"/>
<path d="M130.98 131.441C131.615 134.732 132.132 135.202 135.733 135.782C132.13 136.363 131.615 136.834 130.98 140.123C130.344 136.833 129.827 136.363 126.226 135.782C129.83 135.202 130.344 134.73 130.98 131.441Z" fill="#ECC889" fill-opacity="0.3"/>
<path d="M63.5297 152.865C64.5911 158.346 65.4487 159.132 71.4539 160.1C65.4487 161.07 64.5911 161.853 63.5297 167.337C62.4693 161.855 61.6117 161.07 55.6066 160.1C61.6117 159.132 62.4693 158.348 63.5297 152.865Z" fill="#BBBEA0" fill-opacity="0.5"/>
<path d="M152.945 204.402C153.759 208.614 154.421 209.218 159.033 209.961C154.421 210.705 153.759 211.309 152.945 215.521C152.131 211.309 151.47 210.705 146.857 209.961C151.47 209.218 152.131 208.614 152.945 204.402Z" fill="#BBBEA0" fill-opacity="0.5"/>
<path d="M181.023 255.141C181.682 258.546 182.214 259.033 185.944 259.634C182.216 260.236 181.682 260.722 181.023 264.129C180.363 260.722 179.831 260.236 176.101 259.634C179.829 259.033 180.363 258.546 181.023 255.141Z" fill="#ECC889" fill-opacity="0.3"/>
<path d="M136.16 275.678C136.931 279.66 137.555 280.231 141.915 280.933C137.553 281.637 136.929 282.206 136.16 286.187C135.389 282.206 134.766 281.635 130.405 280.933C134.768 280.229 135.391 279.66 136.16 275.678Z" fill="#ECC889" fill-opacity="0.3"/>
<path d="M130.358 280.219C131.129 284.2 131.753 284.772 136.113 285.475C131.751 286.179 131.127 286.748 130.358 290.729C129.587 286.748 128.964 286.177 124.604 285.475C128.966 284.77 129.589 284.2 130.358 280.219Z" fill="#ECC889" fill-opacity="0.3"/>
<path d="M24.6766 209.774C25.5363 214.219 26.2333 214.854 31.0979 215.638C26.2333 216.424 25.5342 217.059 24.6766 221.503C23.8169 217.057 23.1209 216.422 18.2553 215.638C23.1209 214.852 23.819 214.217 24.6766 209.774Z" fill="#FFC0A7"/>
<path d="M200.294 272.269C201.131 276.599 201.809 277.218 206.55 277.982C201.809 278.747 201.131 279.365 200.294 283.695C199.457 279.365 198.779 278.747 194.038 277.982C198.779 277.218 199.457 276.599 200.294 272.269Z" fill="#BBBEA0" fill-opacity="0.5"/>
<path d="M182.474 147.058C182.997 149.77 183.422 150.16 186.394 150.639C183.424 151.118 182.997 151.506 182.474 154.219C181.949 151.508 181.524 151.118 178.553 150.639C181.522 150.16 181.949 149.772 182.474 147.058Z" fill="#ECC889" fill-opacity="0.3"/>
<path d="M90.0545 248.731C91.0694 253.982 91.8922 254.736 97.6449 255.663C91.8922 256.59 91.0694 257.341 90.0545 262.595C89.0385 257.343 88.2158 256.59 82.4641 255.663C88.2158 254.736 89.0385 253.984 90.0545 248.731Z" fill="#ECC889" fill-opacity="0.3"/>
<path d="M42.4978 193.099C42.9995 195.695 43.4072 196.068 46.2503 196.526C43.405 196.984 42.9995 197.356 42.4978 199.953C41.9962 197.356 41.5874 196.984 38.7443 196.526C41.5895 196.068 41.9962 195.695 42.4978 193.099Z" fill="#ECC889" fill-opacity="0.3"/>
<path d="M133.777 125.454C134.167 127.473 134.484 127.762 136.697 128.12C134.486 128.476 134.169 128.765 133.777 130.786C133.388 128.767 133.071 128.478 130.857 128.12C133.069 127.764 133.386 127.475 133.777 125.454Z" fill="#BBBEA0" fill-opacity="0.5"/>
<path d="M60.9401 256.745C61.711 260.726 62.3342 261.298 66.6939 262C62.332 262.704 61.7089 263.274 60.9401 267.255C60.1691 263.274 59.5449 262.702 55.1852 262C59.547 261.296 60.1712 260.726 60.9401 256.745Z" fill="#FFC0A7"/>
<path d="M126.006 287.631C126.909 292.307 127.643 292.975 132.761 293.8C127.643 294.626 126.909 295.295 126.006 299.969C125.103 295.293 124.369 294.626 119.251 293.8C124.369 292.975 125.103 292.305 126.006 287.631Z" fill="#FFC0A7"/>
<path d="M206.407 148.841C207.267 153.286 207.963 153.922 212.829 154.706C207.961 155.491 207.265 156.127 206.407 160.57C205.547 156.125 204.851 155.489 199.985 154.706C204.853 153.92 205.549 153.284 206.407 148.841Z" fill="#BBBEA0" fill-opacity="0.5"/>
<path d="M134.502 160.698C135.093 163.759 135.574 164.196 138.922 164.735C135.572 165.274 135.093 165.713 134.502 168.771C133.912 165.711 133.431 165.274 130.082 164.735C133.433 164.196 133.912 163.757 134.502 160.698Z" fill="#FFC0A7"/>
<path d="M21.2579 217.087C22.3626 222.801 23.2572 223.62 29.5148 224.629C23.2593 225.638 22.3626 226.454 21.2579 232.169C20.1532 226.456 19.2576 225.638 13 224.629C19.2555 223.62 20.1532 222.803 21.2579 217.087Z" fill="#ECC889" fill-opacity="0.3"/>
</g>
<defs>
<clipPath id="clip0_11_412">
<rect width="219" height="200" fill="white" transform="translate(-71)"/>
</clipPath>
<clipPath id="clip1_11_412">
<rect width="219" height="200" fill="white" transform="translate(13 100)"/>
</clipPath>
</defs>
</svg>
