<svg xmlns="http://www.w3.org/2000/svg" xmlns:xlink="http://www.w3.org/1999/xlink" width="1080" zoomAndPan="magnify" viewBox="0 0 810 809.999993" height="1080" preserveAspectRatio="xMidYMid meet" version="1.0"><defs><clipPath id="8be3c177c3"><path d="M 11.558594 127 L 609 127 L 609 725 L 11.558594 725 Z M 11.558594 127 " clip-rule="nonzero"/></clipPath><clipPath id="2fe3145cca"><path d="M 496 425 L 798.308594 425 L 798.308594 728.925781 L 496 728.925781 Z M 496 425 " clip-rule="nonzero"/></clipPath></defs><g clip-path="url(#8be3c177c3)"><path fill="#ffffff" d="M 317.53125 287.097656 C 317.757812 289.179688 318.03125 291.257812 318.34375 293.328125 C 318.660156 295.402344 319.019531 297.464844 319.421875 299.519531 C 319.824219 301.574219 320.269531 303.621094 320.757812 305.660156 C 321.25 307.695312 321.78125 309.722656 322.355469 311.738281 C 322.929688 313.75 323.546875 315.753906 324.207031 317.742188 C 324.867188 319.730469 325.566406 321.703125 326.308594 323.660156 C 327.050781 325.621094 327.835938 327.5625 328.660156 329.488281 C 329.484375 331.414062 330.351562 333.320312 331.257812 335.210938 C 332.164062 337.097656 333.109375 338.96875 334.09375 340.816406 C 335.078125 342.667969 336.101562 344.492188 337.164062 346.300781 C 338.222656 348.105469 339.324219 349.886719 340.460938 351.648438 C 341.597656 353.40625 342.773438 355.140625 343.984375 356.851562 C 345.195312 358.558594 346.441406 360.242188 347.722656 361.898438 C 349.003906 363.554688 350.320312 365.1875 351.671875 366.785156 C 353.023438 368.386719 354.40625 369.960938 355.824219 371.503906 C 357.242188 373.046875 358.691406 374.558594 360.171875 376.039062 C 361.652344 377.519531 363.164062 378.96875 364.707031 380.386719 C 366.25 381.804688 367.820312 383.1875 369.421875 384.539062 C 371.023438 385.890625 372.652344 387.207031 374.308594 388.488281 C 375.964844 389.769531 377.648438 391.015625 379.359375 392.226562 C 381.070312 393.4375 382.804688 394.613281 384.5625 395.75 C 386.320312 396.886719 388.105469 397.988281 389.910156 399.046875 C 391.714844 400.109375 393.542969 401.132812 395.390625 402.117188 C 397.238281 403.105469 399.109375 404.046875 400.996094 404.953125 C 402.886719 405.859375 404.792969 406.726562 406.71875 407.550781 C 408.644531 408.375 410.585938 409.160156 412.546875 409.902344 C 414.503906 410.644531 416.476562 411.347656 418.464844 412.003906 C 420.453125 412.664062 422.457031 413.28125 424.46875 413.855469 C 426.484375 414.433594 428.511719 414.964844 430.546875 415.453125 C 432.585938 415.941406 434.632812 416.386719 436.6875 416.789062 C 438.742188 417.191406 440.804688 417.550781 442.875 417.867188 C 444.949219 418.183594 447.023438 418.453125 449.105469 418.679688 C 502.253906 423.976562 555.53125 426.40625 608.9375 425.96875 C 555.53125 425.53125 502.253906 427.957031 449.105469 433.253906 C 447.023438 433.480469 444.949219 433.753906 442.875 434.066406 C 440.804688 434.382812 438.742188 434.742188 436.6875 435.144531 C 434.632812 435.546875 432.585938 435.992188 430.546875 436.480469 C 428.511719 436.972656 426.484375 437.503906 424.472656 438.078125 C 422.457031 438.652344 420.457031 439.269531 418.464844 439.929688 C 416.476562 440.589844 414.503906 441.289062 412.546875 442.03125 C 410.585938 442.773438 408.644531 443.558594 406.71875 444.382812 C 404.792969 445.210938 402.886719 446.074219 401 446.980469 C 399.109375 447.886719 397.242188 448.832031 395.390625 449.816406 C 393.542969 450.800781 391.714844 451.824219 389.910156 452.886719 C 388.105469 453.949219 386.320312 455.046875 384.5625 456.183594 C 382.804688 457.324219 381.070312 458.496094 379.359375 459.707031 C 377.648438 460.917969 375.96875 462.164062 374.308594 463.445312 C 372.652344 464.730469 371.023438 466.046875 369.421875 467.394531 C 367.824219 468.746094 366.25 470.132812 364.707031 471.546875 C 363.164062 472.964844 361.652344 474.414062 360.171875 475.894531 C 358.691406 477.378906 357.242188 478.890625 355.824219 480.433594 C 354.40625 481.976562 353.023438 483.546875 351.671875 485.148438 C 350.320312 486.75 349.003906 488.378906 347.722656 490.035156 C 346.441406 491.691406 345.195312 493.375 343.984375 495.085938 C 342.773438 496.792969 341.601562 498.527344 340.460938 500.289062 C 339.324219 502.046875 338.226562 503.828125 337.164062 505.636719 C 336.101562 507.441406 335.078125 509.269531 334.09375 511.117188 C 333.109375 512.964844 332.164062 514.835938 331.257812 516.722656 C 330.351562 518.613281 329.488281 520.519531 328.660156 522.445312 C 327.835938 524.371094 327.054688 526.3125 326.308594 528.273438 C 325.566406 530.230469 324.867188 532.203125 324.207031 534.191406 C 323.546875 536.183594 322.929688 538.183594 322.355469 540.199219 C 321.78125 542.210938 321.25 544.238281 320.757812 546.273438 C 320.269531 548.3125 319.824219 550.359375 319.421875 552.414062 C 319.019531 554.46875 318.660156 556.535156 318.347656 558.605469 C 318.03125 560.675781 317.757812 562.753906 317.53125 564.835938 C 312.238281 617.984375 309.808594 671.261719 310.246094 724.671875 C 310.683594 671.261719 308.253906 617.984375 302.960938 564.835938 C 302.730469 562.753906 302.460938 560.675781 302.144531 558.605469 C 301.832031 556.535156 301.472656 554.46875 301.070312 552.414062 C 300.667969 550.359375 300.222656 548.3125 299.730469 546.273438 C 299.242188 544.238281 298.710938 542.210938 298.136719 540.199219 C 297.5625 538.183594 296.945312 536.179688 296.285156 534.191406 C 295.625 532.203125 294.925781 530.230469 294.183594 528.273438 C 293.441406 526.3125 292.65625 524.371094 291.832031 522.445312 C 291.007812 520.519531 290.140625 518.613281 289.234375 516.722656 C 288.328125 514.835938 287.382812 512.964844 286.398438 511.117188 C 285.414062 509.265625 284.390625 507.441406 283.332031 505.632812 C 282.269531 503.828125 281.167969 502.046875 280.03125 500.285156 C 278.894531 498.527344 277.71875 496.792969 276.507812 495.082031 C 275.296875 493.375 274.050781 491.691406 272.769531 490.035156 C 271.488281 488.375 270.171875 486.746094 268.820312 485.144531 C 267.46875 483.546875 266.085938 481.972656 264.667969 480.429688 C 263.253906 478.886719 261.804688 477.375 260.320312 475.894531 C 258.839844 474.414062 257.328125 472.964844 255.785156 471.546875 C 254.242188 470.128906 252.671875 468.746094 251.070312 467.394531 C 249.46875 466.042969 247.839844 464.726562 246.183594 463.445312 C 244.527344 462.164062 242.84375 460.914062 241.132812 459.707031 C 239.425781 458.496094 237.691406 457.320312 235.933594 456.183594 C 234.171875 455.046875 232.390625 453.945312 230.585938 452.882812 C 228.777344 451.820312 226.953125 450.796875 225.101562 449.8125 C 223.253906 448.828125 221.386719 447.882812 219.496094 446.976562 C 217.605469 446.070312 215.699219 445.207031 213.773438 444.382812 C 211.847656 443.554688 209.90625 442.773438 207.949219 442.027344 C 205.988281 441.285156 204.015625 440.585938 202.027344 439.925781 C 200.039062 439.265625 198.039062 438.648438 196.023438 438.074219 C 194.007812 437.5 191.984375 436.96875 189.945312 436.476562 C 187.910156 435.988281 185.863281 435.542969 183.808594 435.140625 C 181.753906 434.738281 179.6875 434.378906 177.617188 434.0625 C 175.546875 433.75 173.46875 433.476562 171.386719 433.25 C 118.242188 427.953125 64.964844 425.527344 11.558594 425.964844 C 64.964844 426.402344 118.242188 423.972656 171.386719 418.675781 C 173.46875 418.449219 175.546875 418.179688 177.617188 417.863281 C 179.6875 417.546875 181.75 417.1875 183.808594 416.785156 C 185.863281 416.382812 187.910156 415.9375 189.945312 415.449219 C 191.984375 414.960938 194.007812 414.429688 196.023438 413.851562 C 198.039062 413.277344 200.039062 412.660156 202.027344 412.003906 C 204.015625 411.34375 205.988281 410.640625 207.949219 409.898438 C 209.90625 409.15625 211.847656 408.371094 213.773438 407.546875 C 215.699219 406.722656 217.605469 405.855469 219.496094 404.953125 C 221.382812 404.046875 223.253906 403.101562 225.101562 402.117188 C 226.949219 401.132812 228.777344 400.109375 230.582031 399.046875 C 232.390625 397.984375 234.171875 396.882812 235.929688 395.746094 C 237.691406 394.609375 239.425781 393.433594 241.132812 392.222656 C 242.84375 391.011719 244.527344 389.765625 246.183594 388.484375 C 247.839844 387.203125 249.46875 385.886719 251.070312 384.535156 C 252.671875 383.183594 254.242188 381.800781 255.785156 380.382812 C 257.328125 378.964844 258.839844 377.515625 260.320312 376.035156 C 261.800781 374.554688 263.25 373.042969 264.667969 371.5 C 266.085938 369.957031 267.46875 368.386719 268.820312 366.785156 C 270.171875 365.183594 271.488281 363.554688 272.769531 361.898438 C 274.050781 360.242188 275.296875 358.558594 276.507812 356.847656 C 277.71875 355.136719 278.894531 353.40625 280.03125 351.644531 C 281.167969 349.886719 282.265625 348.101562 283.328125 346.296875 C 284.390625 344.492188 285.414062 342.664062 286.398438 340.816406 C 287.382812 338.96875 288.328125 337.097656 289.234375 335.207031 C 290.140625 333.320312 291.003906 331.414062 291.832031 329.488281 C 292.65625 327.5625 293.4375 325.621094 294.183594 323.660156 C 294.925781 321.703125 295.625 319.726562 296.285156 317.738281 C 296.945312 315.75 297.5625 313.75 298.136719 311.734375 C 298.710938 309.722656 299.242188 307.695312 299.730469 305.660156 C 300.21875 303.621094 300.667969 301.574219 301.070312 299.519531 C 301.472656 297.464844 301.832031 295.398438 302.144531 293.328125 C 302.460938 291.257812 302.730469 289.179688 302.960938 287.097656 C 308.257812 233.949219 310.683594 180.671875 310.246094 127.261719 C 309.808594 180.671875 312.238281 233.949219 317.53125 287.097656 Z M 317.53125 287.097656 " fill-opacity="1" fill-rule="nonzero"/></g><g clip-path="url(#2fe3145cca)"><path fill="#ffffff" d="M 651.003906 506.851562 C 651.234375 508.957031 651.554688 511.054688 651.960938 513.136719 C 652.367188 515.21875 652.863281 517.277344 653.445312 519.316406 C 654.027344 521.355469 654.695312 523.367188 655.445312 525.351562 C 656.199219 527.335938 657.03125 529.285156 657.949219 531.195312 C 658.867188 533.109375 659.863281 534.980469 660.9375 536.808594 C 662.015625 538.636719 663.164062 540.414062 664.390625 542.148438 C 665.617188 543.878906 666.914062 545.554688 668.28125 547.175781 C 669.648438 548.796875 671.082031 550.355469 672.582031 551.855469 C 674.082031 553.355469 675.644531 554.789062 677.265625 556.160156 C 678.886719 557.527344 680.5625 558.824219 682.292969 560.050781 C 684.023438 561.273438 685.800781 562.425781 687.628906 563.5 C 689.460938 564.578125 691.328125 565.574219 693.242188 566.488281 C 695.15625 567.40625 697.101562 568.242188 699.085938 568.992188 C 701.070312 569.746094 703.082031 570.414062 705.121094 570.996094 C 707.160156 571.578125 709.21875 572.070312 711.300781 572.480469 C 713.382812 572.886719 715.476562 573.207031 717.585938 573.4375 C 744.480469 576.113281 771.441406 577.34375 798.464844 577.121094 C 771.441406 576.902344 744.480469 578.128906 717.585938 580.808594 C 715.476562 581.039062 713.382812 581.355469 711.300781 581.765625 C 709.21875 582.171875 707.160156 582.667969 705.121094 583.25 C 703.082031 583.832031 701.070312 584.5 699.085938 585.25 C 697.101562 586.003906 695.15625 586.835938 693.242188 587.753906 C 691.328125 588.671875 689.460938 589.667969 687.628906 590.742188 C 685.800781 591.820312 684.023438 592.96875 682.292969 594.195312 C 680.5625 595.421875 678.886719 596.71875 677.265625 598.085938 C 675.644531 599.453125 674.082031 600.886719 672.582031 602.386719 C 671.082031 603.886719 669.648438 605.449219 668.28125 607.070312 C 666.914062 608.691406 665.617188 610.367188 664.390625 612.097656 C 663.164062 613.828125 662.015625 615.609375 660.9375 617.4375 C 659.863281 619.265625 658.867188 621.136719 657.949219 623.046875 C 657.03125 624.960938 656.199219 626.910156 655.445312 628.890625 C 654.695312 630.875 654.027344 632.886719 653.445312 634.925781 C 652.863281 636.964844 652.367188 639.027344 651.960938 641.109375 C 651.554688 643.191406 651.234375 645.285156 651.003906 647.394531 C 648.324219 674.289062 647.097656 701.253906 647.316406 728.28125 C 647.539062 701.253906 646.308594 674.289062 643.628906 647.394531 C 643.398438 645.285156 643.078125 643.191406 642.671875 641.109375 C 642.265625 639.027344 641.769531 636.964844 641.1875 634.925781 C 640.605469 632.886719 639.9375 630.875 639.1875 628.890625 C 638.433594 626.910156 637.601562 624.960938 636.683594 623.046875 C 635.765625 621.136719 634.769531 619.265625 633.695312 617.4375 C 632.621094 615.609375 631.46875 613.828125 630.242188 612.097656 C 629.015625 610.367188 627.71875 608.691406 626.351562 607.070312 C 624.984375 605.449219 623.550781 603.886719 622.050781 602.386719 C 620.550781 600.886719 618.992188 599.453125 617.371094 598.085938 C 615.75 596.71875 614.074219 595.421875 612.339844 594.195312 C 610.609375 592.96875 608.832031 591.816406 607.003906 590.742188 C 605.175781 589.667969 603.304688 588.671875 601.390625 587.753906 C 599.480469 586.835938 597.53125 586.003906 595.546875 585.25 C 593.5625 584.496094 591.550781 583.832031 589.511719 583.25 C 587.472656 582.667969 585.414062 582.171875 583.332031 581.765625 C 581.25 581.355469 579.15625 581.039062 577.046875 580.808594 C 550.152344 578.128906 523.191406 576.902344 496.167969 577.121094 C 523.191406 577.34375 550.152344 576.113281 577.046875 573.4375 C 579.15625 573.207031 581.25 572.886719 583.332031 572.480469 C 585.414062 572.070312 587.472656 571.578125 589.511719 570.996094 C 591.550781 570.414062 593.5625 569.746094 595.546875 568.996094 C 597.53125 568.242188 599.480469 567.40625 601.390625 566.492188 C 603.304688 565.574219 605.175781 564.578125 607.003906 563.5 C 608.832031 562.425781 610.609375 561.277344 612.339844 560.050781 C 614.074219 558.824219 615.75 557.527344 617.371094 556.160156 C 618.992188 554.792969 620.550781 553.359375 622.050781 551.859375 C 623.550781 550.359375 624.984375 548.796875 626.351562 547.175781 C 627.71875 545.554688 629.015625 543.878906 630.242188 542.148438 C 631.46875 540.417969 632.621094 538.636719 633.695312 536.808594 C 634.769531 534.980469 635.765625 533.109375 636.683594 531.195312 C 637.601562 529.285156 638.433594 527.335938 639.1875 525.351562 C 639.9375 523.367188 640.605469 521.359375 641.1875 519.316406 C 641.769531 517.277344 642.265625 515.21875 642.671875 513.136719 C 643.078125 511.054688 643.398438 508.957031 643.628906 506.851562 C 646.316406 479.953125 647.550781 452.992188 647.335938 425.964844 C 647.109375 452.992188 648.332031 479.953125 651.003906 506.851562 Z M 651.003906 506.851562 " fill-opacity="1" fill-rule="nonzero"/></g><path fill="#ffffff" d="M 537.386719 208.558594 C 537.527344 209.847656 537.722656 211.125 537.96875 212.394531 C 538.21875 213.667969 538.519531 214.925781 538.875 216.171875 C 539.230469 217.417969 539.636719 218.644531 540.097656 219.855469 C 540.558594 221.066406 541.066406 222.253906 541.625 223.421875 C 542.1875 224.589844 542.792969 225.734375 543.449219 226.851562 C 544.105469 227.964844 544.808594 229.050781 545.558594 230.109375 C 546.308594 231.167969 547.097656 232.191406 547.933594 233.179688 C 548.769531 234.167969 549.644531 235.121094 550.558594 236.039062 C 551.476562 236.953125 552.429688 237.828125 553.417969 238.664062 C 554.40625 239.5 555.429688 240.292969 556.488281 241.039062 C 557.546875 241.789062 558.632812 242.492188 559.746094 243.148438 C 560.863281 243.804688 562.007812 244.414062 563.175781 244.972656 C 564.339844 245.53125 565.53125 246.042969 566.742188 246.5 C 567.953125 246.960938 569.179688 247.367188 570.425781 247.722656 C 571.671875 248.078125 572.929688 248.378906 574.199219 248.628906 C 575.472656 248.878906 576.75 249.074219 578.039062 249.210938 C 594.460938 250.847656 610.921875 251.597656 627.421875 251.464844 C 610.921875 251.328125 594.460938 252.078125 578.039062 253.714844 C 576.75 253.855469 575.472656 254.050781 574.199219 254.296875 C 572.929688 254.546875 571.671875 254.847656 570.425781 255.203125 C 569.179688 255.558594 567.953125 255.96875 566.742188 256.425781 C 565.53125 256.886719 564.339844 257.394531 563.171875 257.957031 C 562.007812 258.515625 560.863281 259.125 559.746094 259.78125 C 558.632812 260.4375 557.542969 261.140625 556.488281 261.886719 C 555.429688 262.636719 554.40625 263.429688 553.417969 264.265625 C 552.429688 265.097656 551.476562 265.976562 550.558594 266.890625 C 549.644531 267.804688 548.769531 268.757812 547.933594 269.75 C 547.097656 270.738281 546.304688 271.761719 545.558594 272.820312 C 544.808594 273.875 544.105469 274.964844 543.449219 276.078125 C 542.792969 277.195312 542.1875 278.339844 541.625 279.507812 C 541.066406 280.671875 540.558594 281.863281 540.097656 283.074219 C 539.636719 284.285156 539.230469 285.511719 538.875 286.757812 C 538.519531 288.003906 538.21875 289.261719 537.96875 290.535156 C 537.722656 291.804688 537.527344 293.085938 537.386719 294.371094 C 535.75 310.792969 535 327.253906 535.136719 343.753906 C 535.269531 327.253906 534.519531 310.792969 532.882812 294.371094 C 532.742188 293.085938 532.546875 291.804688 532.296875 290.535156 C 532.050781 289.261719 531.746094 288.003906 531.390625 286.757812 C 531.035156 285.511719 530.628906 284.285156 530.171875 283.074219 C 529.710938 281.863281 529.203125 280.675781 528.640625 279.507812 C 528.082031 278.339844 527.472656 277.195312 526.816406 276.078125 C 526.160156 274.964844 525.457031 273.875 524.710938 272.820312 C 523.960938 271.761719 523.167969 270.738281 522.335938 269.75 C 521.5 268.757812 520.625 267.804688 519.707031 266.890625 C 518.792969 265.976562 517.839844 265.097656 516.851562 264.265625 C 515.859375 263.429688 514.835938 262.636719 513.78125 261.886719 C 512.722656 261.140625 511.636719 260.4375 510.519531 259.78125 C 509.402344 259.125 508.261719 258.515625 507.09375 257.957031 C 505.925781 257.394531 504.738281 256.886719 503.527344 256.425781 C 502.316406 255.96875 501.085938 255.558594 499.839844 255.203125 C 498.597656 254.847656 497.335938 254.546875 496.066406 254.296875 C 494.796875 254.050781 493.515625 253.855469 492.230469 253.714844 C 475.808594 252.078125 459.347656 251.328125 442.84375 251.464844 C 459.347656 251.597656 475.808594 250.847656 492.230469 249.210938 C 493.515625 249.070312 494.796875 248.875 496.066406 248.628906 C 497.335938 248.378906 498.59375 248.078125 499.839844 247.722656 C 501.085938 247.363281 502.3125 246.957031 503.523438 246.5 C 504.734375 246.039062 505.921875 245.527344 507.089844 244.96875 C 508.257812 244.410156 509.398438 243.800781 510.515625 243.144531 C 511.628906 242.488281 512.714844 241.785156 513.773438 241.035156 C 514.828125 240.289062 515.851562 239.496094 516.839844 238.660156 C 517.832031 237.824219 518.785156 236.949219 519.699219 236.035156 C 520.613281 235.117188 521.488281 234.164062 522.324219 233.175781 C 523.160156 232.1875 523.949219 231.164062 524.699219 230.105469 C 525.445312 229.050781 526.148438 227.960938 526.804688 226.847656 C 527.460938 225.730469 528.070312 224.589844 528.628906 223.421875 C 529.1875 222.253906 529.699219 221.0625 530.15625 219.851562 C 530.617188 218.640625 531.023438 217.414062 531.378906 216.167969 C 531.734375 214.925781 532.035156 213.667969 532.285156 212.394531 C 532.53125 211.125 532.726562 209.847656 532.867188 208.558594 C 534.511719 192.132812 535.265625 175.664062 535.136719 159.15625 C 535 175.664062 535.75 192.132812 537.386719 208.558594 Z M 537.386719 208.558594 " fill-opacity="1" fill-rule="nonzero"/></svg>