<svg xmlns="http://www.w3.org/2000/svg" xmlns:xlink="http://www.w3.org/1999/xlink" width="1080" zoomAndPan="magnify" viewBox="0 0 810 809.999993" height="1080" preserveAspectRatio="xMidYMid meet" version="1.0"><defs><clipPath id="1ae9d996a2"><path d="M 754 628 L 808.5 628 L 808.5 682 L 754 682 Z M 754 628 " clip-rule="nonzero"/></clipPath></defs><path fill="#ecc889" d="M 224.0625 0.15625 C 225.589844 8.800781 226.832031 10.039062 235.476562 11.566406 C 226.832031 13.089844 225.589844 14.332031 224.0625 22.976562 C 222.539062 14.332031 221.296875 13.089844 212.652344 11.566406 C 221.296875 10.039062 222.539062 8.800781 224.0625 0.15625 Z M 224.0625 0.15625 " fill-opacity="1" fill-rule="nonzero"/><path fill="#ffc0a7" d="M 579.300781 483.769531 C 581.898438 498.5 584.007812 500.605469 598.738281 503.207031 C 584.007812 505.804688 581.898438 507.910156 579.300781 522.640625 C 576.703125 507.910156 574.59375 505.804688 559.863281 503.207031 C 574.59375 500.605469 576.703125 498.5 579.300781 483.769531 Z M 579.300781 483.769531 " fill-opacity="1" fill-rule="nonzero"/><path fill="#ffc0a7" d="M 314.117188 659.011719 C 315.726562 668.132812 317.03125 669.433594 326.152344 671.042969 C 317.03125 672.652344 315.726562 673.957031 314.117188 683.078125 C 312.507812 673.957031 311.207031 672.652344 302.085938 671.042969 C 311.207031 669.433594 312.507812 668.132812 314.117188 659.011719 Z M 314.117188 659.011719 " fill-opacity="1" fill-rule="nonzero"/><path fill="#ecc889" d="M 312.203125 162.332031 C 313.566406 170.046875 314.671875 171.152344 322.378906 172.507812 C 314.671875 173.871094 313.558594 174.976562 312.203125 182.6875 C 310.839844 174.96875 309.734375 173.863281 302.023438 172.507812 C 309.734375 171.144531 310.847656 170.039062 312.203125 162.332031 Z M 312.203125 162.332031 " fill-opacity="1" fill-rule="nonzero"/><path fill="#ecc889" d="M 749.0625 356.226562 C 750.429688 363.945312 751.53125 365.046875 759.242188 366.40625 C 751.53125 367.769531 750.421875 368.871094 749.0625 376.582031 C 747.699219 368.863281 746.597656 367.761719 738.886719 366.40625 C 746.597656 365.039062 747.707031 363.9375 749.0625 356.226562 Z M 749.0625 356.226562 " fill-opacity="1" fill-rule="nonzero"/><g clip-path="url(#1ae9d996a2)"><path fill="#ffc0a7" d="M 781.636719 628.117188 C 785.222656 648.453125 788.136719 651.363281 808.476562 654.957031 C 788.144531 658.542969 785.230469 661.457031 781.636719 681.796875 C 778.050781 661.464844 775.136719 658.550781 754.796875 654.957031 C 775.128906 651.371094 778.042969 648.460938 781.636719 628.117188 Z M 781.636719 628.117188 " fill-opacity="1" fill-rule="nonzero"/></g><path fill="#ecc889" d="M 510.324219 47.65625 C 513.75 67.058594 516.523438 69.835938 535.929688 73.261719 C 516.53125 76.6875 513.75 79.460938 510.324219 98.867188 C 506.898438 79.460938 504.121094 76.6875 484.714844 73.261719 C 504.113281 69.835938 506.898438 67.058594 510.324219 47.65625 Z M 510.324219 47.65625 " fill-opacity="1" fill-rule="nonzero"/><path fill="#ecc889" d="M 211.417969 489.132812 C 214.015625 503.863281 216.125 505.972656 230.855469 508.570312 C 216.125 511.167969 214.015625 513.277344 211.417969 528.003906 C 208.820312 513.277344 206.710938 511.167969 191.980469 508.570312 C 206.710938 505.972656 208.820312 503.863281 211.417969 489.132812 Z M 211.417969 489.132812 " fill-opacity="1" fill-rule="nonzero"/><path fill="#ecc889" d="M 527.566406 711.15625 C 531.078125 731.023438 533.921875 733.875 553.785156 737.375 C 533.921875 740.886719 531.070312 743.730469 527.566406 763.59375 C 524.058594 743.730469 521.214844 740.878906 501.347656 737.375 C 521.214844 733.867188 524.066406 731.023438 527.566406 711.15625 Z M 527.566406 711.15625 " fill-opacity="1" fill-rule="nonzero"/><path fill="#ecc889" d="M 436.363281 127.335938 C 438.714844 140.664062 440.625 142.566406 453.945312 144.917969 C 440.617188 147.269531 438.714844 149.179688 436.363281 162.5 C 434.011719 149.171875 432.101562 147.269531 418.78125 144.917969 C 432.109375 142.566406 434.011719 140.65625 436.363281 127.335938 Z M 436.363281 127.335938 " fill-opacity="1" fill-rule="nonzero"/><path fill="#bbbea0" d="M 186.890625 214.101562 C 190.816406 236.300781 193.988281 239.484375 216.199219 243.40625 C 193.988281 247.332031 190.816406 250.503906 186.890625 272.714844 C 182.96875 250.511719 179.796875 247.332031 157.585938 243.40625 C 179.796875 239.484375 182.96875 236.308594 186.890625 214.101562 Z M 186.890625 214.101562 " fill-opacity="1" fill-rule="nonzero"/><path fill="#bbbea0" d="M 517.605469 422.828125 C 520.617188 439.886719 523.0625 442.332031 540.121094 445.34375 C 523.0625 448.355469 520.617188 450.800781 517.605469 467.859375 C 514.59375 450.800781 512.148438 448.355469 495.085938 445.34375 C 512.148438 442.332031 514.59375 439.886719 517.605469 422.828125 Z M 517.605469 422.828125 " fill-opacity="1" fill-rule="nonzero"/><path fill="#ecc889" d="M 621.453125 628.320312 C 623.890625 642.113281 625.859375 644.082031 639.65625 646.519531 C 625.867188 648.957031 623.890625 650.925781 621.453125 664.722656 C 619.015625 650.925781 617.046875 648.957031 603.25 646.519531 C 617.039062 644.082031 619.015625 642.113281 621.453125 628.320312 Z M 621.453125 628.320312 " fill-opacity="1" fill-rule="nonzero"/><path fill="#ecc889" d="M 455.523438 711.496094 C 458.375 727.621094 460.683594 729.933594 476.808594 732.777344 C 460.675781 735.628906 458.367188 737.933594 455.523438 754.058594 C 452.671875 737.933594 450.367188 735.621094 434.238281 732.777344 C 450.375 729.925781 452.679688 727.621094 455.523438 711.496094 Z M 455.523438 711.496094 " fill-opacity="1" fill-rule="nonzero"/><path fill="#ecc889" d="M 434.0625 729.886719 C 436.914062 746.011719 439.222656 748.328125 455.347656 751.171875 C 439.214844 754.023438 436.90625 756.328125 434.0625 772.453125 C 431.210938 756.328125 428.90625 754.015625 412.78125 751.171875 C 428.914062 748.320312 431.21875 746.011719 434.0625 729.886719 Z M 434.0625 729.886719 " fill-opacity="1" fill-rule="nonzero"/><path fill="#ffc0a7" d="M 43.1875 444.585938 C 46.367188 462.585938 48.945312 465.160156 66.9375 468.335938 C 48.945312 471.515625 46.359375 474.089844 43.1875 492.085938 C 40.007812 474.082031 37.433594 471.507812 19.4375 468.335938 C 37.433594 465.152344 40.015625 462.578125 43.1875 444.585938 Z M 43.1875 444.585938 " fill-opacity="1" fill-rule="nonzero"/><path fill="#bbbea0" d="M 692.730469 697.691406 C 695.828125 715.226562 698.335938 717.734375 715.871094 720.828125 C 698.335938 723.925781 695.828125 726.429688 692.730469 743.964844 C 689.636719 726.429688 687.128906 723.925781 669.59375 720.828125 C 687.128906 717.734375 689.636719 715.226562 692.730469 697.691406 Z M 692.730469 697.691406 " fill-opacity="1" fill-rule="nonzero"/><path fill="#ecc889" d="M 626.820312 190.585938 C 628.757812 201.570312 630.328125 203.148438 641.320312 205.085938 C 630.335938 207.027344 628.757812 208.597656 626.820312 219.585938 C 624.878906 208.605469 623.308594 207.027344 612.320312 205.085938 C 623.300781 203.148438 624.878906 201.578125 626.820312 190.585938 Z M 626.820312 190.585938 " fill-opacity="1" fill-rule="nonzero"/><path fill="#ecc889" d="M 284.996094 602.359375 C 288.75 623.628906 291.792969 626.679688 313.070312 630.433594 C 291.792969 634.1875 288.75 637.230469 284.996094 658.507812 C 281.238281 637.238281 278.195312 634.1875 256.921875 630.433594 C 278.195312 626.679688 281.238281 623.636719 284.996094 602.359375 Z M 284.996094 602.359375 " fill-opacity="1" fill-rule="nonzero"/><path fill="#ecc889" d="M 109.101562 377.050781 C 110.957031 387.566406 112.464844 389.074219 122.980469 390.929688 C 112.457031 392.785156 110.957031 394.292969 109.101562 404.808594 C 107.246094 394.292969 105.734375 392.785156 95.21875 390.929688 C 105.742188 389.074219 107.246094 387.566406 109.101562 377.050781 Z M 109.101562 377.050781 " fill-opacity="1" fill-rule="nonzero"/><path fill="#bbbea0" d="M 446.710938 103.089844 C 448.152344 111.265625 449.324219 112.4375 457.507812 113.886719 C 449.332031 115.328125 448.160156 116.5 446.710938 124.683594 C 445.269531 116.507812 444.097656 115.335938 435.910156 113.886719 C 444.089844 112.445312 445.261719 111.273438 446.710938 103.089844 Z M 446.710938 103.089844 " fill-opacity="1" fill-rule="nonzero"/><path fill="#ffc0a7" d="M 177.3125 634.816406 C 180.164062 650.941406 182.46875 653.257812 198.59375 656.101562 C 182.460938 658.949219 180.15625 661.257812 177.3125 677.382812 C 174.460938 661.257812 172.152344 658.941406 156.027344 656.101562 C 172.160156 653.25 174.46875 650.941406 177.3125 634.816406 Z M 177.3125 634.816406 " fill-opacity="1" fill-rule="nonzero"/><path fill="#ffc0a7" d="M 417.96875 759.90625 C 421.308594 778.84375 424.023438 781.550781 442.953125 784.890625 C 424.023438 788.234375 421.308594 790.945312 417.96875 809.875 C 414.628906 790.9375 411.914062 788.234375 392.984375 784.890625 C 411.914062 781.550781 414.628906 778.835938 417.96875 759.90625 Z M 417.96875 759.90625 " fill-opacity="1" fill-rule="nonzero"/><path fill="#bbbea0" d="M 715.339844 197.804688 C 718.523438 215.808594 721.097656 218.382812 739.09375 221.558594 C 721.089844 224.738281 718.515625 227.3125 715.339844 245.308594 C 712.160156 227.304688 709.585938 224.730469 691.589844 221.558594 C 709.59375 218.375 712.167969 215.800781 715.339844 197.804688 Z M 715.339844 197.804688 " fill-opacity="1" fill-rule="nonzero"/><path fill="#ffc0a7" d="M 449.390625 245.828125 C 451.578125 258.222656 453.355469 259.992188 465.738281 262.175781 C 453.347656 264.359375 451.578125 266.136719 449.390625 278.523438 C 447.207031 266.128906 445.429688 264.359375 433.042969 262.175781 C 445.4375 259.992188 447.207031 258.214844 449.390625 245.828125 Z M 449.390625 245.828125 " fill-opacity="1" fill-rule="nonzero"/><path fill="#ecc889" d="M 30.542969 474.203125 C 34.628906 497.34375 37.9375 500.660156 61.082031 504.746094 C 37.945312 508.832031 34.628906 512.140625 30.542969 535.285156 C 26.457031 512.148438 23.144531 508.832031 0 504.746094 C 23.136719 500.660156 26.457031 497.351562 30.542969 474.203125 Z M 30.542969 474.203125 " fill-opacity="1" fill-rule="nonzero"/></svg>